{
	"asset":{
		"generator":"Khronos glTF Blender I/O v3.5.30",
		"version":"2.0"
	},
	"scene":0,
	"scenes":[
		{
			"name":"Scene",
			"nodes":[
				0,
				1,
				2,
				3,
				4,
				5,
				6,
				7,
				8,
				9,
				10,
				11,
				12,
				13,
				14,
				15,
				16,
				17,
				18,
				19
			]
		}
	],
	"nodes":[
		{
			"mesh":0,
			"name":"Cube_cell",
			"translation":[
				-0.06551285833120346,
				0.39418572187423706,
				-0.37742525339126587
			]
		},
		{
			"mesh":1,
			"name":"Cube_cell.001",
			"translation":[
				-0.328369677066803,
				0.45080265402793884,
				-0.13238714635372162
			]
		},
		{
			"mesh":2,
			"name":"Cube_cell.002",
			"translation":[
				0.3318452835083008,
				0.46636462211608887,
				-0.16514763236045837
			]
		},
		{
			"mesh":3,
			"name":"Cube_cell.003",
			"translation":[
				0.1577369123697281,
				0.47942376136779785,
				-0.3495653569698334
			]
		},
		{
			"mesh":4,
			"name":"Cube_cell.004",
			"translation":[
				0.1744091957807541,
				0.16392767429351807,
				0.35994571447372437
			]
		},
		{
			"mesh":5,
			"name":"Cube_cell.005",
			"translation":[
				0.32477831840515137,
				0.4375183880329132,
				0.2913888990879059
			]
		},
		{
			"mesh":6,
			"name":"Cube_cell.006",
			"translation":[
				-0.3580775260925293,
				0.2603852152824402,
				0.16669920086860657
			]
		},
		{
			"mesh":7,
			"name":"Cube_cell.007",
			"translation":[
				-0.2995647192001343,
				0.025042057037353516,
				0.3329337239265442
			]
		},
		{
			"mesh":8,
			"name":"Cube_cell.008",
			"translation":[
				0.016042441129684448,
				0.5069544315338135,
				-0.019317487254738808
			]
		},
		{
			"mesh":9,
			"name":"Cube_cell.009",
			"translation":[
				0.3542991280555725,
				-0.135364830493927,
				0.07384344935417175
			]
		},
		{
			"mesh":10,
			"name":"Cube_cell.010",
			"translation":[
				-0.3713942766189575,
				-0.050391942262649536,
				-0.1874655932188034
			]
		},
		{
			"mesh":11,
			"name":"Cube_cell.011",
			"translation":[
				-0.09490248560905457,
				-0.21647411584854126,
				-0.3427545130252838
			]
		},
		{
			"mesh":12,
			"name":"Cube_cell.012",
			"translation":[
				0.14220966398715973,
				-0.16238915920257568,
				0.34444111585617065
			]
		},
		{
			"mesh":13,
			"name":"Cube_cell.013",
			"translation":[
				0.28315436840057373,
				-0.014575093984603882,
				-0.35203635692596436
			]
		},
		{
			"mesh":14,
			"name":"Cube_cell.014",
			"translation":[
				-0.310696542263031,
				0.48701679706573486,
				0.25214117765426636
			]
		},
		{
			"mesh":15,
			"name":"Cube_cell.015",
			"translation":[
				-0.16348770260810852,
				-0.2431698441505432,
				0.06827418506145477
			]
		},
		{
			"mesh":16,
			"name":"Cube_cell.016",
			"translation":[
				-0.25748610496520996,
				0.17510443925857544,
				-0.3779637813568115
			]
		},
		{
			"mesh":17,
			"name":"Cube_cell.017",
			"translation":[
				0.35647261142730713,
				0.4072614312171936,
				-0.3630279302597046
			]
		},
		{
			"mesh":18,
			"name":"Cube_cell.018",
			"translation":[
				-0.017750538885593414,
				0.4488082826137543,
				0.33049482107162476
			]
		},
		{
			"mesh":19,
			"name":"Cube_cell.019",
			"translation":[
				0.3825758695602417,
				0.29981353878974915,
				0.0011810250580310822
			]
		}
	],
	"materials":[
		{
			"doubleSided":true,
			"name":"Material",
			"pbrMetallicRoughness":{
				"baseColorFactor":[
					0.800000011920929,
					0.800000011920929,
					0.800000011920929,
					1
				],
				"metallicFactor":0,
				"roughnessFactor":0.5
			}
		}
	],
	"meshes":[
		{
			"name":"Cube_cell.020",
			"primitives":[
				{
					"attributes":{
						"POSITION":0,
						"TEXCOORD_0":1,
						"NORMAL":2
					},
					"indices":3,
					"material":0
				}
			]
		},
		{
			"name":"Cube_cell.021",
			"primitives":[
				{
					"attributes":{
						"POSITION":4,
						"TEXCOORD_0":5,
						"NORMAL":6
					},
					"indices":7,
					"material":0
				}
			]
		},
		{
			"name":"Cube_cell.001",
			"primitives":[
				{
					"attributes":{
						"POSITION":8,
						"TEXCOORD_0":9,
						"NORMAL":10
					},
					"indices":11,
					"material":0
				}
			]
		},
		{
			"name":"Cube_cell.002",
			"primitives":[
				{
					"attributes":{
						"POSITION":12,
						"TEXCOORD_0":13,
						"NORMAL":14
					},
					"indices":15,
					"material":0
				}
			]
		},
		{
			"name":"Cube_cell.003",
			"primitives":[
				{
					"attributes":{
						"POSITION":16,
						"TEXCOORD_0":17,
						"NORMAL":18
					},
					"indices":19,
					"material":0
				}
			]
		},
		{
			"name":"Cube_cell.004",
			"primitives":[
				{
					"attributes":{
						"POSITION":20,
						"TEXCOORD_0":21,
						"NORMAL":22
					},
					"indices":23,
					"material":0
				}
			]
		},
		{
			"name":"Cube_cell.005",
			"primitives":[
				{
					"attributes":{
						"POSITION":24,
						"TEXCOORD_0":25,
						"NORMAL":26
					},
					"indices":27,
					"material":0
				}
			]
		},
		{
			"name":"Cube_cell.006",
			"primitives":[
				{
					"attributes":{
						"POSITION":28,
						"TEXCOORD_0":29,
						"NORMAL":30
					},
					"indices":31,
					"material":0
				}
			]
		},
		{
			"name":"Cube_cell.007",
			"primitives":[
				{
					"attributes":{
						"POSITION":32,
						"TEXCOORD_0":33,
						"NORMAL":34
					},
					"indices":35,
					"material":0
				}
			]
		},
		{
			"name":"Cube_cell.008",
			"primitives":[
				{
					"attributes":{
						"POSITION":36,
						"TEXCOORD_0":37,
						"NORMAL":38
					},
					"indices":39,
					"material":0
				}
			]
		},
		{
			"name":"Cube_cell.009",
			"primitives":[
				{
					"attributes":{
						"POSITION":40,
						"TEXCOORD_0":41,
						"NORMAL":42
					},
					"indices":43,
					"material":0
				}
			]
		},
		{
			"name":"Cube_cell.010",
			"primitives":[
				{
					"attributes":{
						"POSITION":44,
						"TEXCOORD_0":45,
						"NORMAL":46
					},
					"indices":47,
					"material":0
				}
			]
		},
		{
			"name":"Cube_cell.011",
			"primitives":[
				{
					"attributes":{
						"POSITION":48,
						"TEXCOORD_0":49,
						"NORMAL":50
					},
					"indices":51,
					"material":0
				}
			]
		},
		{
			"name":"Cube_cell.012",
			"primitives":[
				{
					"attributes":{
						"POSITION":52,
						"TEXCOORD_0":53,
						"NORMAL":54
					},
					"indices":55,
					"material":0
				}
			]
		},
		{
			"name":"Cube_cell.013",
			"primitives":[
				{
					"attributes":{
						"POSITION":56,
						"TEXCOORD_0":57,
						"NORMAL":58
					},
					"indices":59,
					"material":0
				}
			]
		},
		{
			"name":"Cube_cell.014",
			"primitives":[
				{
					"attributes":{
						"POSITION":60,
						"TEXCOORD_0":61,
						"NORMAL":62
					},
					"indices":63,
					"material":0
				}
			]
		},
		{
			"name":"Cube_cell.015",
			"primitives":[
				{
					"attributes":{
						"POSITION":64,
						"TEXCOORD_0":65,
						"NORMAL":66
					},
					"indices":67,
					"material":0
				}
			]
		},
		{
			"name":"Cube_cell.016",
			"primitives":[
				{
					"attributes":{
						"POSITION":68,
						"TEXCOORD_0":69,
						"NORMAL":70
					},
					"indices":71,
					"material":0
				}
			]
		},
		{
			"name":"Cube_cell.017",
			"primitives":[
				{
					"attributes":{
						"POSITION":72,
						"TEXCOORD_0":73,
						"NORMAL":74
					},
					"indices":75,
					"material":0
				}
			]
		},
		{
			"name":"Cube_cell.018",
			"primitives":[
				{
					"attributes":{
						"POSITION":76,
						"TEXCOORD_0":77,
						"NORMAL":78
					},
					"indices":79,
					"material":0
				}
			]
		}
	],
	"accessors":[
		{
			"bufferView":0,
			"componentType":5126,
			"count":82,
			"max":[
				0.27383658289909363,
				0.13122156262397766,
				0.13891039788722992
			],
			"min":[
				-0.27672359347343445,
				-0.2792266309261322,
				-0.03594715893268585
			],
			"type":"VEC3"
		},
		{
			"bufferView":1,
			"componentType":5126,
			"count":82,
			"type":"VEC2"
		},
		{
			"bufferView":2,
			"componentType":5126,
			"count":82,
			"type":"VEC3"
		},
		{
			"bufferView":3,
			"componentType":5123,
			"count":150,
			"type":"SCALAR"
		},
		{
			"bufferView":4,
			"componentType":5126,
			"count":86,
			"max":[
				0.15627765655517578,
				0.07460464537143707,
				0.2596653401851654
			],
			"min":[
				-0.0639418363571167,
				-0.24461311101913452,
				-0.2809852659702301
			],
			"type":"VEC3"
		},
		{
			"bufferView":5,
			"componentType":5126,
			"count":86,
			"type":"VEC2"
		},
		{
			"bufferView":6,
			"componentType":5126,
			"count":86,
			"type":"VEC3"
		},
		{
			"bufferView":7,
			"componentType":5123,
			"count":162,
			"type":"SCALAR"
		},
		{
			"bufferView":8,
			"componentType":5126,
			"count":76,
			"max":[
				0.0758432000875473,
				0.059042658656835556,
				0.19400037825107574
			],
			"min":[
				-0.1904739886522293,
				-0.2336426079273224,
				-0.1199161484837532
			],
			"type":"VEC3"
		},
		{
			"bufferView":9,
			"componentType":5126,
			"count":76,
			"type":"VEC2"
		},
		{
			"bufferView":10,
			"componentType":5126,
			"count":76,
			"type":"VEC3"
		},
		{
			"bufferView":11,
			"componentType":5123,
			"count":138,
			"type":"SCALAR"
		},
		{
			"bufferView":12,
			"componentType":5126,
			"count":54,
			"max":[
				0.13947835564613342,
				0.045983560383319855,
				0.1546821892261505
			],
			"min":[
				-0.17261873185634613,
				-0.1576346457004547,
				-0.06380708515644073
			],
			"type":"VEC3"
		},
		{
			"bufferView":13,
			"componentType":5126,
			"count":54,
			"type":"VEC2"
		},
		{
			"bufferView":14,
			"componentType":5126,
			"count":54,
			"type":"VEC3"
		},
		{
			"bufferView":15,
			"componentType":5123,
			"count":96,
			"type":"SCALAR"
		},
		{
			"bufferView":16,
			"componentType":5126,
			"count":106,
			"max":[
				0.2332792431116104,
				0.19609206914901733,
				0.026681847870349884
			],
			"min":[
				-0.2769771218299866,
				-0.16961851716041565,
				-0.1665894240140915
			],
			"type":"VEC3"
		},
		{
			"bufferView":17,
			"componentType":5126,
			"count":106,
			"type":"VEC2"
		},
		{
			"bufferView":18,
			"componentType":5126,
			"count":106,
			"type":"VEC3"
		},
		{
			"bufferView":19,
			"componentType":5123,
			"count":198,
			"type":"SCALAR"
		},
		{
			"bufferView":20,
			"componentType":5126,
			"count":62,
			"max":[
				0.08291014283895493,
				0.0878889337182045,
				0.09523867815732956
			],
			"min":[
				-0.15582530200481415,
				-0.19445933401584625,
				-0.18959961831569672
			],
			"type":"VEC3"
		},
		{
			"bufferView":21,
			"componentType":5126,
			"count":62,
			"type":"VEC2"
		},
		{
			"bufferView":22,
			"componentType":5126,
			"count":62,
			"type":"VEC3"
		},
		{
			"bufferView":23,
			"componentType":5123,
			"count":114,
			"type":"SCALAR"
		},
		{
			"bufferView":24,
			"componentType":5126,
			"count":96,
			"max":[
				0.23975196480751038,
				0.16608189046382904,
				0.21992835402488708
			],
			"min":[
				-0.03423402085900307,
				-0.2640516459941864,
				-0.28045135736465454
			],
			"type":"VEC3"
		},
		{
			"bufferView":25,
			"componentType":5126,
			"count":96,
			"type":"VEC2"
		},
		{
			"bufferView":26,
			"componentType":5126,
			"count":96,
			"type":"VEC3"
		},
		{
			"bufferView":27,
			"componentType":5123,
			"count":180,
			"type":"SCALAR"
		},
		{
			"bufferView":28,
			"componentType":5126,
			"count":90,
			"max":[
				0.19877073168754578,
				0.32616129517555237,
				0.05369385704398155
			],
			"min":[
				-0.09274685382843018,
				-0.299634724855423,
				-0.2374076396226883
			],
			"type":"VEC3"
		},
		{
			"bufferView":29,
			"componentType":5126,
			"count":90,
			"type":"VEC2"
		},
		{
			"bufferView":30,
			"componentType":5126,
			"count":90,
			"type":"VEC3"
		},
		{
			"bufferView":31,
			"componentType":5123,
			"count":162,
			"type":"SCALAR"
		},
		{
			"bufferView":32,
			"componentType":5126,
			"count":102,
			"max":[
				0.24130184948444366,
				0.01845289021730423,
				0.2056766152381897
			],
			"min":[
				-0.1912967562675476,
				-0.018800867721438408,
				-0.24094749987125397
			],
			"type":"VEC3"
		},
		{
			"bufferView":33,
			"componentType":5126,
			"count":102,
			"type":"VEC2"
		},
		{
			"bufferView":34,
			"componentType":5126,
			"count":102,
			"type":"VEC3"
		},
		{
			"bufferView":35,
			"componentType":5123,
			"count":192,
			"type":"SCALAR"
		},
		{
			"bufferView":36,
			"componentType":5126,
			"count":66,
			"max":[
				0.053389307111501694,
				0.3356223404407501,
				0.30085834860801697
			],
			"min":[
				-0.24268515408039093,
				-0.13922788202762604,
				-0.323259562253952
			],
			"type":"VEC3"
		},
		{
			"bufferView":37,
			"componentType":5126,
			"count":66,
			"type":"VEC2"
		},
		{
			"bufferView":38,
			"componentType":5126,
			"count":66,
			"type":"VEC3"
		},
		{
			"bufferView":39,
			"componentType":5123,
			"count":120,
			"type":"SCALAR"
		},
		{
			"bufferView":40,
			"componentType":5126,
			"count":76,
			"max":[
				0.10154091566801071,
				0.28868111968040466,
				0.2930254638195038
			],
			"min":[
				-0.020917251706123352,
				-0.22420074045658112,
				-0.2259068638086319
			],
			"type":"VEC3"
		},
		{
			"bufferView":41,
			"componentType":5126,
			"count":76,
			"type":"VEC2"
		},
		{
			"bufferView":42,
			"componentType":5126,
			"count":76,
			"type":"VEC3"
		},
		{
			"bufferView":43,
			"componentType":5123,
			"count":138,
			"type":"SCALAR"
		},
		{
			"bufferView":44,
			"componentType":5126,
			"count":78,
			"max":[
				0.32101550698280334,
				0.17127160727977753,
				0.14779455959796906
			],
			"min":[
				-0.2974090576171875,
				-0.0581185556948185,
				-0.0706179067492485
			],
			"type":"VEC3"
		},
		{
			"bufferView":45,
			"componentType":5126,
			"count":78,
			"type":"VEC2"
		},
		{
			"bufferView":46,
			"componentType":5126,
			"count":78,
			"type":"VEC3"
		},
		{
			"bufferView":47,
			"componentType":5123,
			"count":144,
			"type":"SCALAR"
		},
		{
			"bufferView":48,
			"componentType":5126,
			"count":72,
			"max":[
				0.2654787302017212,
				0.21051114797592163,
				0.04218648374080658
			],
			"min":[
				-0.3121587336063385,
				-0.11220354586839676,
				-0.21382059156894684
			],
			"type":"VEC3"
		},
		{
			"bufferView":49,
			"componentType":5126,
			"count":72,
			"type":"VEC2"
		},
		{
			"bufferView":50,
			"componentType":5126,
			"count":72,
			"type":"VEC3"
		},
		{
			"bufferView":51,
			"componentType":5123,
			"count":132,
			"type":"SCALAR"
		},
		{
			"bufferView":52,
			"componentType":5126,
			"count":136,
			"max":[
				0.12453406304121017,
				0.3407733738422394,
				0.2177705466747284
			],
			"min":[
				-0.286172091960907,
				-0.2600175738334656,
				-0.06133608520030975
			],
			"type":"VEC3"
		},
		{
			"bufferView":53,
			"componentType":5126,
			"count":136,
			"type":"VEC2"
		},
		{
			"bufferView":54,
			"componentType":5126,
			"count":136,
			"type":"VEC3"
		},
		{
			"bufferView":55,
			"componentType":5123,
			"count":258,
			"type":"SCALAR"
		},
		{
			"bufferView":56,
			"componentType":5126,
			"count":72,
			"max":[
				0.16800734400749207,
				0.03839053213596344,
				0.13448640704154968
			],
			"min":[
				-0.08161498606204987,
				-0.09152623265981674,
				-0.17188173532485962
			],
			"type":"VEC3"
		},
		{
			"bufferView":57,
			"componentType":5126,
			"count":72,
			"type":"VEC2"
		},
		{
			"bufferView":58,
			"componentType":5126,
			"count":72,
			"type":"VEC3"
		},
		{
			"bufferView":59,
			"componentType":5123,
			"count":132,
			"type":"SCALAR"
		},
		{
			"bufferView":60,
			"componentType":5126,
			"count":116,
			"max":[
				0.39297860860824585,
				0.24227482080459595,
				0.3183533847332001
			],
			"min":[
				-0.22882384061813354,
				-0.031422801315784454,
				-0.26276877522468567
			],
			"type":"VEC3"
		},
		{
			"bufferView":61,
			"componentType":5126,
			"count":116,
			"type":"VEC2"
		},
		{
			"bufferView":62,
			"componentType":5126,
			"count":116,
			"type":"VEC3"
		},
		{
			"bufferView":63,
			"componentType":5123,
			"count":216,
			"type":"SCALAR"
		},
		{
			"bufferView":64,
			"componentType":5126,
			"count":62,
			"max":[
				0.2573898732662201,
				0.32066604495048523,
				0.20300918817520142
			],
			"min":[
				-0.1348254680633545,
				-0.23881526291370392,
				-0.0354086309671402
			],
			"type":"VEC3"
		},
		{
			"bufferView":65,
			"componentType":5126,
			"count":62,
			"type":"VEC2"
		},
		{
			"bufferView":66,
			"componentType":5126,
			"count":62,
			"type":"VEC3"
		},
		{
			"bufferView":67,
			"componentType":5123,
			"count":114,
			"type":"SCALAR"
		},
		{
			"bufferView":68,
			"componentType":5126,
			"count":58,
			"max":[
				0.05121586099267006,
				0.11814587563276291,
				0.07729187607765198
			],
			"min":[
				-0.11288946121931076,
				-0.16406729817390442,
				-0.050344474613666534
			],
			"type":"VEC3"
		},
		{
			"bufferView":69,
			"componentType":5126,
			"count":58,
			"type":"VEC2"
		},
		{
			"bufferView":70,
			"componentType":5126,
			"count":58,
			"type":"VEC3"
		},
		{
			"bufferView":71,
			"componentType":5123,
			"count":102,
			"type":"SCALAR"
		},
		{
			"bufferView":72,
			"componentType":5126,
			"count":90,
			"max":[
				0.2100972980260849,
				0.07659902423620224,
				0.05613277107477188
			],
			"min":[
				-0.2239188849925995,
				-0.21489562094211578,
				-0.14349791407585144
			],
			"type":"VEC3"
		},
		{
			"bufferView":73,
			"componentType":5126,
			"count":90,
			"type":"VEC2"
		},
		{
			"bufferView":74,
			"componentType":5126,
			"count":90,
			"type":"VEC3"
		},
		{
			"bufferView":75,
			"componentType":5123,
			"count":168,
			"type":"SCALAR"
		},
		{
			"bufferView":76,
			"componentType":5126,
			"count":64,
			"max":[
				0.025112586095929146,
				0.22559376060962677,
				0.24182291328907013
			],
			"min":[
				-0.1430649757385254,
				-0.2735760509967804,
				-0.2651655375957489
			],
			"type":"VEC3"
		},
		{
			"bufferView":77,
			"componentType":5126,
			"count":64,
			"type":"VEC2"
		},
		{
			"bufferView":78,
			"componentType":5126,
			"count":64,
			"type":"VEC3"
		},
		{
			"bufferView":79,
			"componentType":5123,
			"count":114,
			"type":"SCALAR"
		}
	],
	"bufferViews":[
		{
			"buffer":0,
			"byteLength":984,
			"byteOffset":0,
			"target":34962
		},
		{
			"buffer":0,
			"byteLength":656,
			"byteOffset":984,
			"target":34962
		},
		{
			"buffer":0,
			"byteLength":984,
			"byteOffset":1640,
			"target":34962
		},
		{
			"buffer":0,
			"byteLength":300,
			"byteOffset":2624,
			"target":34963
		},
		{
			"buffer":0,
			"byteLength":1032,
			"byteOffset":2924,
			"target":34962
		},
		{
			"buffer":0,
			"byteLength":688,
			"byteOffset":3956,
			"target":34962
		},
		{
			"buffer":0,
			"byteLength":1032,
			"byteOffset":4644,
			"target":34962
		},
		{
			"buffer":0,
			"byteLength":324,
			"byteOffset":5676,
			"target":34963
		},
		{
			"buffer":0,
			"byteLength":912,
			"byteOffset":6000,
			"target":34962
		},
		{
			"buffer":0,
			"byteLength":608,
			"byteOffset":6912,
			"target":34962
		},
		{
			"buffer":0,
			"byteLength":912,
			"byteOffset":7520,
			"target":34962
		},
		{
			"buffer":0,
			"byteLength":276,
			"byteOffset":8432,
			"target":34963
		},
		{
			"buffer":0,
			"byteLength":648,
			"byteOffset":8708,
			"target":34962
		},
		{
			"buffer":0,
			"byteLength":432,
			"byteOffset":9356,
			"target":34962
		},
		{
			"buffer":0,
			"byteLength":648,
			"byteOffset":9788,
			"target":34962
		},
		{
			"buffer":0,
			"byteLength":192,
			"byteOffset":10436,
			"target":34963
		},
		{
			"buffer":0,
			"byteLength":1272,
			"byteOffset":10628,
			"target":34962
		},
		{
			"buffer":0,
			"byteLength":848,
			"byteOffset":11900,
			"target":34962
		},
		{
			"buffer":0,
			"byteLength":1272,
			"byteOffset":12748,
			"target":34962
		},
		{
			"buffer":0,
			"byteLength":396,
			"byteOffset":14020,
			"target":34963
		},
		{
			"buffer":0,
			"byteLength":744,
			"byteOffset":14416,
			"target":34962
		},
		{
			"buffer":0,
			"byteLength":496,
			"byteOffset":15160,
			"target":34962
		},
		{
			"buffer":0,
			"byteLength":744,
			"byteOffset":15656,
			"target":34962
		},
		{
			"buffer":0,
			"byteLength":228,
			"byteOffset":16400,
			"target":34963
		},
		{
			"buffer":0,
			"byteLength":1152,
			"byteOffset":16628,
			"target":34962
		},
		{
			"buffer":0,
			"byteLength":768,
			"byteOffset":17780,
			"target":34962
		},
		{
			"buffer":0,
			"byteLength":1152,
			"byteOffset":18548,
			"target":34962
		},
		{
			"buffer":0,
			"byteLength":360,
			"byteOffset":19700,
			"target":34963
		},
		{
			"buffer":0,
			"byteLength":1080,
			"byteOffset":20060,
			"target":34962
		},
		{
			"buffer":0,
			"byteLength":720,
			"byteOffset":21140,
			"target":34962
		},
		{
			"buffer":0,
			"byteLength":1080,
			"byteOffset":21860,
			"target":34962
		},
		{
			"buffer":0,
			"byteLength":324,
			"byteOffset":22940,
			"target":34963
		},
		{
			"buffer":0,
			"byteLength":1224,
			"byteOffset":23264,
			"target":34962
		},
		{
			"buffer":0,
			"byteLength":816,
			"byteOffset":24488,
			"target":34962
		},
		{
			"buffer":0,
			"byteLength":1224,
			"byteOffset":25304,
			"target":34962
		},
		{
			"buffer":0,
			"byteLength":384,
			"byteOffset":26528,
			"target":34963
		},
		{
			"buffer":0,
			"byteLength":792,
			"byteOffset":26912,
			"target":34962
		},
		{
			"buffer":0,
			"byteLength":528,
			"byteOffset":27704,
			"target":34962
		},
		{
			"buffer":0,
			"byteLength":792,
			"byteOffset":28232,
			"target":34962
		},
		{
			"buffer":0,
			"byteLength":240,
			"byteOffset":29024,
			"target":34963
		},
		{
			"buffer":0,
			"byteLength":912,
			"byteOffset":29264,
			"target":34962
		},
		{
			"buffer":0,
			"byteLength":608,
			"byteOffset":30176,
			"target":34962
		},
		{
			"buffer":0,
			"byteLength":912,
			"byteOffset":30784,
			"target":34962
		},
		{
			"buffer":0,
			"byteLength":276,
			"byteOffset":31696,
			"target":34963
		},
		{
			"buffer":0,
			"byteLength":936,
			"byteOffset":31972,
			"target":34962
		},
		{
			"buffer":0,
			"byteLength":624,
			"byteOffset":32908,
			"target":34962
		},
		{
			"buffer":0,
			"byteLength":936,
			"byteOffset":33532,
			"target":34962
		},
		{
			"buffer":0,
			"byteLength":288,
			"byteOffset":34468,
			"target":34963
		},
		{
			"buffer":0,
			"byteLength":864,
			"byteOffset":34756,
			"target":34962
		},
		{
			"buffer":0,
			"byteLength":576,
			"byteOffset":35620,
			"target":34962
		},
		{
			"buffer":0,
			"byteLength":864,
			"byteOffset":36196,
			"target":34962
		},
		{
			"buffer":0,
			"byteLength":264,
			"byteOffset":37060,
			"target":34963
		},
		{
			"buffer":0,
			"byteLength":1632,
			"byteOffset":37324,
			"target":34962
		},
		{
			"buffer":0,
			"byteLength":1088,
			"byteOffset":38956,
			"target":34962
		},
		{
			"buffer":0,
			"byteLength":1632,
			"byteOffset":40044,
			"target":34962
		},
		{
			"buffer":0,
			"byteLength":516,
			"byteOffset":41676,
			"target":34963
		},
		{
			"buffer":0,
			"byteLength":864,
			"byteOffset":42192,
			"target":34962
		},
		{
			"buffer":0,
			"byteLength":576,
			"byteOffset":43056,
			"target":34962
		},
		{
			"buffer":0,
			"byteLength":864,
			"byteOffset":43632,
			"target":34962
		},
		{
			"buffer":0,
			"byteLength":264,
			"byteOffset":44496,
			"target":34963
		},
		{
			"buffer":0,
			"byteLength":1392,
			"byteOffset":44760,
			"target":34962
		},
		{
			"buffer":0,
			"byteLength":928,
			"byteOffset":46152,
			"target":34962
		},
		{
			"buffer":0,
			"byteLength":1392,
			"byteOffset":47080,
			"target":34962
		},
		{
			"buffer":0,
			"byteLength":432,
			"byteOffset":48472,
			"target":34963
		},
		{
			"buffer":0,
			"byteLength":744,
			"byteOffset":48904,
			"target":34962
		},
		{
			"buffer":0,
			"byteLength":496,
			"byteOffset":49648,
			"target":34962
		},
		{
			"buffer":0,
			"byteLength":744,
			"byteOffset":50144,
			"target":34962
		},
		{
			"buffer":0,
			"byteLength":228,
			"byteOffset":50888,
			"target":34963
		},
		{
			"buffer":0,
			"byteLength":696,
			"byteOffset":51116,
			"target":34962
		},
		{
			"buffer":0,
			"byteLength":464,
			"byteOffset":51812,
			"target":34962
		},
		{
			"buffer":0,
			"byteLength":696,
			"byteOffset":52276,
			"target":34962
		},
		{
			"buffer":0,
			"byteLength":204,
			"byteOffset":52972,
			"target":34963
		},
		{
			"buffer":0,
			"byteLength":1080,
			"byteOffset":53176,
			"target":34962
		},
		{
			"buffer":0,
			"byteLength":720,
			"byteOffset":54256,
			"target":34962
		},
		{
			"buffer":0,
			"byteLength":1080,
			"byteOffset":54976,
			"target":34962
		},
		{
			"buffer":0,
			"byteLength":336,
			"byteOffset":56056,
			"target":34963
		},
		{
			"buffer":0,
			"byteLength":768,
			"byteOffset":56392,
			"target":34962
		},
		{
			"buffer":0,
			"byteLength":512,
			"byteOffset":57160,
			"target":34962
		},
		{
			"buffer":0,
			"byteLength":768,
			"byteOffset":57672,
			"target":34962
		},
		{
			"buffer":0,
			"byteLength":228,
			"byteOffset":58440,
			"target":34963
		}
	],
	"buffers":[
		{
			"byteLength":58668,
			"uri":"data:application/octet-stream;base64,"
		}
	]
}
