{
	"asset":{
		"generator":"Khronos glTF Blender I/O v3.5.30",
		"version":"2.0"
	},
	"scene":0,
	"scenes":[
		{
			"name":"Scene",
			"nodes":[
				0
			]
		}
	],
	"nodes":[
		{
			"mesh":0,
			"name":"Cube_rat_0",
			"rotation":[
				-0.70710688829422,
				0,
				0,
				0.7071066498756409
			]
		}
	],
	"materials":[
		{
			"doubleSided":true,
			"name":"material",
			"pbrMetallicRoughness":{}
		}
	],
	"meshes":[
		{
			"name":"Cube_rat_0",
			"primitives":[
				{
					"attributes":{
						"POSITION":0,
						"TEXCOORD_0":1,
						"NORMAL":2,
						"TANGENT":3
					},
					"indices":4,
					"material":0
				}
			]
		}
	],
	"accessors":[
		{
			"bufferView":0,
			"componentType":5126,
			"count":332,
			"max":[
				0.0807705968618393,
				0.5909895896911621,
				0.20630137622356415
			],
			"min":[
				-0.0807705968618393,
				-0.19687366485595703,
				-0.00014653436664957553
			],
			"type":"VEC3"
		},
		{
			"bufferView":1,
			"componentType":5126,
			"count":332,
			"type":"VEC2"
		},
		{
			"bufferView":2,
			"componentType":5126,
			"count":332,
			"type":"VEC3"
		},
		{
			"bufferView":3,
			"componentType":5126,
			"count":332,
			"type":"VEC4"
		},
		{
			"bufferView":4,
			"componentType":5123,
			"count":852,
			"type":"SCALAR"
		}
	],
	"bufferViews":[
		{
			"buffer":0,
			"byteLength":3984,
			"byteOffset":0,
			"target":34962
		},
		{
			"buffer":0,
			"byteLength":2656,
			"byteOffset":3984,
			"target":34962
		},
		{
			"buffer":0,
			"byteLength":3984,
			"byteOffset":6640,
			"target":34962
		},
		{
			"buffer":0,
			"byteLength":5312,
			"byteOffset":10624,
			"target":34962
		},
		{
			"buffer":0,
			"byteLength":1704,
			"byteOffset":15936,
			"target":34963
		}
	],
	"buffers":[
		{
			"byteLength":17640,
			"uri":"data:application/octet-stream;base64,"
		}
	]
}
