<?xml version="1.0" encoding="utf-8"?>
<COLLADA xmlns="http://www.collada.org/2005/11/COLLADASchema" version="1.4.1">
<asset>
	<contributor>
		<author>Anonymous</author>
		<authoring_tool>Collada Exporter for Blender 2.6+, by Juan Linietsky (juan@codenix.com)</authoring_tool>
	</contributor>
	<created>2023-05-31T16:24:19Z</created>
	<modified>2023-05-31T16:24:19Z</modified>
	<unit meter="1.0" name="meter"/>
	<up_axis>Z_UP</up_axis>
</asset>
<library_images>
	<image id="id-image-3" name="tekstura.jpg">
		<init_from>images\tekstura.jpg</init_from>
	</image>
</library_images>
<library_effects>
	<effect id="id-fx-2" name="Material.001-fx">
		<profile_COMMON>
			<newparam sid="id-fx_surf-4">
				<surface type="2D">
					<init_from>id-image-3</init_from>
					<format>A8R8G8B8</format>
				</surface>
			</newparam>
			<newparam sid="id-fx_sampler-5">
				<sampler2D>
					<source>id-fx_surf-4</source>
				</sampler2D>
			</newparam>
			<technique sid="common">
				<blinn>
					<emission>
						<color>  0.800000011920929 0.800000011920929 0.800000011920929 1.0 </color>
					</emission>
					<ambient>
						<color>  0.0 0.0 0.0 1.0 </color>
					</ambient>
					<diffuse>
						<texture texture="id-fx_sampler-5" texcoord="CHANNEL1"/>
					</diffuse>
					<specular>
						<color>  0.5 0.5 0.5 1.0 </color>
					</specular>
					<shininess>
						<float>50</float>
					</shininess>
					<reflective>
						<color>  0.5 0.5 0.5 1.0 </color>
					</reflective>
					<index_of_refraction>
						<float>1.2</float>
					</index_of_refraction>
				</blinn>
				<extra>
					<technique profile="FCOLLADA">
					</technique>
					<technique profile="GOOGLEEARTH">
						<double_sided>1</double_sided>
					</technique>
				</extra>
			</technique>
		</profile_COMMON>
	</effect>
</library_effects>
<library_materials>
	<material id="id-material-6" name="Material.001">
		<instance_effect url="#id-fx-2"/>
	</material>
</library_materials>
<library_geometries>
	<geometry id="id-mesh-7" name="Cylinder">
		<mesh>
			<source id="id-mesh-7-positions">
				<float_array id="id-mesh-7-positions-array" count="1458"> 0.19509032368659973 0.9807852506637573 1.0 0.0 1.0 1.0 -1.7702629406812775e-07 1.0 -0.5739047527313232 0.3826834559440613 0.9238795042037964 1.0 0.19509032368659973 0.9807852506637573 1.0 0.1950901299715042 0.9807852506637573 -0.5821049213409424 0.5555702447891235 0.8314695954322815 1.0 0.3826834559440613 0.9238795042037964 1.0 0.38268324732780457 0.9238795042037964 -0.6063902378082275 0.7071067690849304 0.7071067690849304 1.0 0.5555702447891235 0.8314695954322815 1.0 0.5555700063705444 0.8314695358276367 -0.6458274722099304 0.8314695954322815 0.5555702447891235 1.0 0.7071067690849304 0.7071067690849304 1.0 0.7071065306663513 0.7071068286895752 -0.6989009380340576 0.9238795042037964 0.3826834559440613 1.0 0.8314695954322815 0.5555702447891235 1.0 0.8314693570137024 0.555570125579834 -0.7635712027549744 0.9807852506637573 0.19509032368659973 1.0 0.9238795042037964 0.3826834559440613 1.0 0.9238792657852173 0.3826833963394165 -0.837352991104126 1.0 0.0 1.0 0.9807852506637573 0.19509032368659973 1.0 0.9807850122451782 0.19509005546569824 -0.9174108505249023 0.9807850122451782 -0.19509053230285645 -0.9174108505249023 0.9807852506637573 -0.19509032368659973 1.0 1.0 0.0 1.0 0.9807850122451782 -0.19509053230285645 -0.9174108505249023 0.9238793253898621 -0.38268375396728516 -0.837352991104126 0.9807852506637573 -0.19509032368659973 1.0 0.9238793253898621 -0.38268375396728516 -0.837352991104126 0.8314694762229919 -0.5555702447891235 -0.7635712027549744 0.9238795042037964 -0.3826834559440613 1.0 0.8314694762229919 -0.5555702447891235 -0.7635712027549744 0.7071066498756409 -0.7071071863174438 -0.6989009380340576 0.8314695954322815 -0.5555702447891235 1.0 0.7071066498756409 -0.7071071863174438 -0.6989009380340576 0.555570125579834 -0.8314698934555054 -0.6458274722099304 0.7071067690849304 -0.7071067690849304 1.0 0.555570125579834 -0.8314698934555054 -0.6458274722099304 0.3826833963394165 -0.9238797426223755 -0.6063901782035828 0.5555702447891235 -0.8314695954322815 1.0 0.3826833963394165 -0.9238797426223755 -0.6063901782035828 0.19509027898311615 -0.9807857275009155 -0.5821048617362976 0.3826834559440613 -0.9238795042037964 1.0 0.19509027898311615 -0.9807857275009155 -0.5821048617362976 -2.6030491540041112e-08 -1.0 -0.5739046931266785 0.19509032368659973 -0.9807852506637573 1.0 -0.19509032368659973 -0.9807852506637573 1.0 0.0 -1.0 1.0 -2.6030491540041112e-08 -1.0 -0.5739046931266785 -0.3826834559440613 -0.9238795042037964 1.0 -0.19509032368659973 -0.9807852506637573 1.0 -0.19509033858776093 -0.9807857275009155 -0.5821048617362976 -0.5555702447891235 -0.8314695954322815 1.0 -0.3826834559440613 -0.9238795042037964 1.0 -0.3826834559440613 -0.9238797426223755 -0.6063901782035828 -0.7071067690849304 -0.7071067690849304 1.0 -0.5555702447891235 -0.8314695954322815 1.0 -0.5555702447891235 -0.8314698934555054 -0.6458273530006409 -0.8314695954322815 -0.5555702447891235 1.0 -0.7071067690849304 -0.7071067690849304 1.0 -0.7071067690849304 -0.7071071863174438 -0.6989008784294128 -0.9238795042037964 -0.3826834559440613 1.0 -0.8314695954322815 -0.5555702447891235 1.0 -0.8314695954322815 -0.5555702447891235 -0.7635711431503296 -0.9807852506637573 -0.19509032368659973 1.0 -0.9238795042037964 -0.3826834559440613 1.0 -0.9238795638084412 -0.38268375396728516 -0.8373528718948364 -1.0 0.0 1.0 -0.9807852506637573 -0.19509032368659973 1.0 -0.9807853698730469 -0.19509053230285645 -0.9174107909202576 -0.9807853698730469 0.19509005546569824 -0.9174107909202576 -0.9807852506637573 0.19509032368659973 1.0 -1.0 0.0 1.0 -0.9238796234130859 0.3826833963394165 -0.8373528718948364 -0.9807852506637573 0.19509032368659973 1.0 -0.9807853698730469 0.19509005546569824 -0.9174107909202576 -0.831469714641571 0.555570125579834 -0.7635711431503296 -0.9238795042037964 0.3826834559440613 1.0 -0.9238796234130859 0.3826833963394165 -0.8373528718948364 -0.70710688829422 0.7071068286895752 -0.6989008784294128 -0.8314695954322815 0.5555702447891235 1.0 -0.831469714641571 0.555570125579834 -0.7635711431503296 -0.5555703639984131 0.8314695358276367 -0.6458274126052856 -0.7071067690849304 0.7071067690849304 1.0 -0.70710688829422 0.7071068286895752 -0.6989008784294128 -0.3826836049556732 0.9238795042037964 -0.6063902378082275 -0.5555702447891235 0.8314695954322815 1.0 -0.5555703639984131 0.8314695358276367 -0.6458274126052856 -0.19509048759937286 0.9807852506637573 -0.5821049213409424 -0.3826834559440613 0.9238795042037964 1.0 -0.3826836049556732 0.9238795042037964 -0.6063902378082275 -1.7702629406812775e-07 1.0 -0.5739047527313232 -0.19509032368659973 0.9807852506637573 1.0 -0.19509048759937286 0.9807852506637573 -0.5821049213409424 0.19509023427963257 -2.3432178497314453 -1.4192315340042114 -4.2943230482705985e-07 2.343219041824341 -1.4274318218231201 -7.56161355752738e-08 -2.3432180881500244 -1.4274317026138306 0.3826833665370941 -2.3432178497314453 -1.3949462175369263 0.19508987665176392 2.343219041824341 -1.419231653213501 0.19509023427963257 -2.3432178497314453 -1.4192315340042114 0.3826833665370941 -2.3432178497314453 -1.3949462175369263 0.5555697679519653 2.343219041824341 -1.3555090427398682 0.38268300890922546 2.343219041824341 -1.3949463367462158 0.7071066498756409 -2.3432180881500244 -1.3024356365203857 0.5555697679519653 2.343219041824341 -1.3555090427398682 0.555570125579834 -2.3432180881500244 -1.3555090427398682 0.7071066498756409 -2.3432180881500244 -1.3024356365203857 0.8314691185951233 2.343219041824341 -1.2377653121948242 0.7071062922477722 2.343219041824341 -1.3024356365203857 0.9238794445991516 -2.3432180881500244 -1.1639835834503174 0.8314691185951233 2.343219041824341 -1.2377653121948242 0.8314694762229919 -2.3432183265686035 -1.2377653121948242 0.9807851910591125 -2.3432180881500244 -1.083925724029541 0.923879086971283 2.343219041824341 -1.1639835834503174 0.9238794445991516 -2.3432180881500244 -1.1639835834503174 1.0 0.0 -1.0 0.9999995827674866 2.343219041824341 -1.0006682872772217 0.9807848334312439 2.343219041824341 -1.083925724029541 1.0 0.0 -1.0 0.9807850122451782 0.19509005546569824 -0.9174108505249023 0.9999995827674866 2.343219041824341 -1.0006682872772217 0.1950901299715042 0.9807852506637573 -0.5821049213409424 0.382683128118515 2.3432188034057617 -0.6063902974128723 0.38268324732780457 0.9238795042037964 -0.6063902378082275 -0.9238796234130859 0.3826833963394165 -0.8373528718948364 -0.9238798022270203 2.343219041824341 -0.8373529314994812 -0.831469714641571 0.555570125579834 -0.7635711431503296 -0.9807853698730469 0.19509005546569824 -0.9174107909202576 -0.9807855486869812 2.343219041824341 -0.9174107909202576 -0.9238796234130859 0.3826833963394165 -0.8373528718948364 -0.9807855486869812 2.343219041824341 -1.083925724029541 -1.000000238418579 2.343219041824341 -1.0006682872772217 -1.0 0.0 -1.0 -0.9238794445991516 -2.3432180881500244 -1.1639835834503174 -0.9807855486869812 2.343219041824341 -1.083925724029541 -0.9807851910591125 -2.3432180881500244 -1.0839256048202515 -0.9238794445991516 -2.3432180881500244 -1.1639835834503174 -0.8314699530601501 2.343219041824341 -1.2377653121948242 -0.9238798022270203 2.343219041824341 -1.1639835834503174 -0.7071067690849304 -2.3432180881500244 -1.3024355173110962 -0.8314699530601501 2.343219041824341 -1.2377653121948242 -0.8314695954322815 -2.3432183265686035 -1.2377653121948242 -0.5555702447891235 -2.3432180881500244 -1.3555090427398682 -0.7071071267127991 2.343219041824341 -1.3024356365203857 -0.7071067690849304 -2.3432180881500244 -1.3024355173110962 -0.38268348574638367 -2.3432178497314453 -1.3949462175369263 -0.5555706024169922 2.343219041824341 -1.3555090427398682 -0.5555702447891235 -2.3432180881500244 -1.3555090427398682 -0.1950903832912445 -2.3432178497314453 -1.4192315340042114 -0.3826838433742523 2.343219041824341 -1.3949463367462158 -0.38268348574638367 -2.3432178497314453 -1.3949462175369263 -0.1950903832912445 -2.3432178497314453 -1.4192315340042114 -4.2943230482705985e-07 2.343219041824341 -1.4274318218231201 -0.19509074091911316 2.343219041824341 -1.419231653213501 0.1950901299715042 0.9807852506637573 -0.5821049213409424 0.19509032368659973 0.9807852506637573 1.0 -1.7702629406812775e-07 1.0 -0.5739047527313232 0.38268324732780457 0.9238795042037964 -0.6063902378082275 0.3826834559440613 0.9238795042037964 1.0 0.1950901299715042 0.9807852506637573 -0.5821049213409424 0.5555700063705444 0.8314695358276367 -0.6458274722099304 0.5555702447891235 0.8314695954322815 1.0 0.38268324732780457 0.9238795042037964 -0.6063902378082275 0.7071065306663513 0.7071068286895752 -0.6989009380340576 0.7071067690849304 0.7071067690849304 1.0 0.5555700063705444 0.8314695358276367 -0.6458274722099304 0.8314693570137024 0.555570125579834 -0.7635712027549744 0.8314695954322815 0.5555702447891235 1.0 0.7071065306663513 0.7071068286895752 -0.6989009380340576 0.9238792657852173 0.3826833963394165 -0.837352991104126 0.9238795042037964 0.3826834559440613 1.0 0.8314693570137024 0.555570125579834 -0.7635712027549744 0.9807850122451782 0.19509005546569824 -0.9174108505249023 0.9807852506637573 0.19509032368659973 1.0 0.9238792657852173 0.3826833963394165 -0.837352991104126 1.0 0.0 -1.0 1.0 0.0 1.0 0.9807850122451782 0.19509005546569824 -0.9174108505249023 1.0 0.0 1.0 1.0 0.0 -1.0 0.9807850122451782 -0.19509053230285645 -0.9174108505249023 0.9238793253898621 -0.38268375396728516 -0.837352991104126 0.9238795042037964 -0.3826834559440613 1.0 0.9807852506637573 -0.19509032368659973 1.0 0.8314694762229919 -0.5555702447891235 -0.7635712027549744 0.8314695954322815 -0.5555702447891235 1.0 0.9238795042037964 -0.3826834559440613 1.0 0.7071066498756409 -0.7071071863174438 -0.6989009380340576 0.7071067690849304 -0.7071067690849304 1.0 0.8314695954322815 -0.5555702447891235 1.0 0.555570125579834 -0.8314698934555054 -0.6458274722099304 0.5555702447891235 -0.8314695954322815 1.0 0.7071067690849304 -0.7071067690849304 1.0 0.3826833963394165 -0.9238797426223755 -0.6063901782035828 0.3826834559440613 -0.9238795042037964 1.0 0.5555702447891235 -0.8314695954322815 1.0 0.19509027898311615 -0.9807857275009155 -0.5821048617362976 0.19509032368659973 -0.9807852506637573 1.0 0.3826834559440613 -0.9238795042037964 1.0 -2.6030491540041112e-08 -1.0 -0.5739046931266785 0.0 -1.0 1.0 0.19509032368659973 -0.9807852506637573 1.0 -0.19509033858776093 -0.9807857275009155 -0.5821048617362976 -0.19509032368659973 -0.9807852506637573 1.0 -2.6030491540041112e-08 -1.0 -0.5739046931266785 -0.3826834559440613 -0.9238797426223755 -0.6063901782035828 -0.3826834559440613 -0.9238795042037964 1.0 -0.19509033858776093 -0.9807857275009155 -0.5821048617362976 -0.5555702447891235 -0.8314698934555054 -0.6458273530006409 -0.5555702447891235 -0.8314695954322815 1.0 -0.3826834559440613 -0.9238797426223755 -0.6063901782035828 -0.7071067690849304 -0.7071071863174438 -0.6989008784294128 -0.7071067690849304 -0.7071067690849304 1.0 -0.5555702447891235 -0.8314698934555054 -0.6458273530006409 -0.8314695954322815 -0.5555702447891235 -0.7635711431503296 -0.8314695954322815 -0.5555702447891235 1.0 -0.7071067690849304 -0.7071071863174438 -0.6989008784294128 -0.9238795638084412 -0.38268375396728516 -0.8373528718948364 -0.9238795042037964 -0.3826834559440613 1.0 -0.8314695954322815 -0.5555702447891235 -0.7635711431503296 -0.9807853698730469 -0.19509053230285645 -0.9174107909202576 -0.9807852506637573 -0.19509032368659973 1.0 -0.9238795638084412 -0.38268375396728516 -0.8373528718948364 -1.0 0.0 -1.0 -1.0 0.0 1.0 -0.9807853698730469 -0.19509053230285645 -0.9174107909202576 -1.0 0.0 1.0 -1.0 0.0 -1.0 -0.9807853698730469 0.19509005546569824 -0.9174107909202576 -0.9238796234130859 0.3826833963394165 -0.8373528718948364 -0.9238795042037964 0.3826834559440613 1.0 -0.9807852506637573 0.19509032368659973 1.0 -0.831469714641571 0.555570125579834 -0.7635711431503296 -0.8314695954322815 0.5555702447891235 1.0 -0.9238795042037964 0.3826834559440613 1.0 -0.70710688829422 0.7071068286895752 -0.6989008784294128 -0.7071067690849304 0.7071067690849304 1.0 -0.8314695954322815 0.5555702447891235 1.0 -0.5555703639984131 0.8314695358276367 -0.6458274126052856 -0.5555702447891235 0.8314695954322815 1.0 -0.7071067690849304 0.7071067690849304 1.0 -0.3826836049556732 0.9238795042037964 -0.6063902378082275 -0.3826834559440613 0.9238795042037964 1.0 -0.5555702447891235 0.8314695954322815 1.0 -0.19509048759937286 0.9807852506637573 -0.5821049213409424 -0.19509032368659973 0.9807852506637573 1.0 -0.3826834559440613 0.9238795042037964 1.0 -1.7702629406812775e-07 1.0 -0.5739047527313232 0.0 1.0 1.0 -0.19509032368659973 0.9807852506637573 1.0 0.19509023427963257 -2.3432178497314453 -1.4192315340042114 0.19508987665176392 2.343219041824341 -1.419231653213501 -4.2943230482705985e-07 2.343219041824341 -1.4274318218231201 0.3826833665370941 -2.3432178497314453 -1.3949462175369263 0.38268300890922546 2.343219041824341 -1.3949463367462158 0.19508987665176392 2.343219041824341 -1.419231653213501 0.3826833665370941 -2.3432178497314453 -1.3949462175369263 0.555570125579834 -2.3432180881500244 -1.3555090427398682 0.5555697679519653 2.343219041824341 -1.3555090427398682 0.7071066498756409 -2.3432180881500244 -1.3024356365203857 0.7071062922477722 2.343219041824341 -1.3024356365203857 0.5555697679519653 2.343219041824341 -1.3555090427398682 0.7071066498756409 -2.3432180881500244 -1.3024356365203857 0.8314694762229919 -2.3432183265686035 -1.2377653121948242 0.8314691185951233 2.343219041824341 -1.2377653121948242 0.9238794445991516 -2.3432180881500244 -1.1639835834503174 0.923879086971283 2.343219041824341 -1.1639835834503174 0.8314691185951233 2.343219041824341 -1.2377653121948242 0.9807851910591125 -2.3432180881500244 -1.083925724029541 0.9807848334312439 2.343219041824341 -1.083925724029541 0.923879086971283 2.343219041824341 -1.1639835834503174 0.9807848334312439 2.343219041824341 -1.083925724029541 0.9807851910591125 -2.3432180881500244 -1.083925724029541 1.0 0.0 -1.0 0.9807851910591125 -2.3432180881500244 -1.083925724029541 0.9999999403953552 -2.3432180881500244 -1.0006682872772217 1.0 0.0 -1.0 1.0 0.0 -1.0 0.9999999403953552 -2.3432180881500244 -1.0006682872772217 0.9807850122451782 -0.19509053230285645 -0.9174108505249023 0.9999999403953552 -2.3432180881500244 -1.0006682872772217 0.9807851910591125 -2.3432180881500244 -0.9174107909202576 0.9807850122451782 -0.19509053230285645 -0.9174108505249023 0.9807850122451782 0.19509005546569824 -0.9174108505249023 0.9807848334312439 2.343219041824341 -0.9174109101295471 0.9999995827674866 2.343219041824341 -1.0006682872772217 0.9807850122451782 -0.19509053230285645 -0.9174108505249023 0.9807851910591125 -2.3432180881500244 -0.9174107909202576 0.9238793253898621 -0.38268375396728516 -0.837352991104126 0.9807851910591125 -2.3432180881500244 -0.9174107909202576 0.9238794445991516 -2.3432180881500244 -0.8373529314994812 0.9238793253898621 -0.38268375396728516 -0.837352991104126 0.923879086971283 2.343219041824341 -0.837352991104126 0.9807848334312439 2.343219041824341 -0.9174109101295471 0.9238792657852173 0.3826833963394165 -0.837352991104126 0.9807848334312439 2.343219041824341 -0.9174109101295471 0.9807850122451782 0.19509005546569824 -0.9174108505249023 0.9238792657852173 0.3826833963394165 -0.837352991104126 0.9238793253898621 -0.38268375396728516 -0.837352991104126 0.9238794445991516 -2.3432180881500244 -0.8373529314994812 0.8314694762229919 -0.5555702447891235 -0.7635712027549744 0.9238794445991516 -2.3432180881500244 -0.8373529314994812 0.8314695954322815 -2.3432180881500244 -0.7635712027549744 0.8314694762229919 -0.5555702447891235 -0.7635712027549744 0.8314693570137024 0.555570125579834 -0.7635712027549744 0.8314692378044128 2.34321928024292 -0.7635712027549744 0.923879086971283 2.343219041824341 -0.837352991104126 0.9238792657852173 0.3826833963394165 -0.837352991104126 0.8314693570137024 0.555570125579834 -0.7635712027549744 0.923879086971283 2.343219041824341 -0.837352991104126 0.8314694762229919 -0.5555702447891235 -0.7635712027549744 0.8314695954322815 -2.3432180881500244 -0.7635712027549744 0.7071066498756409 -0.7071071863174438 -0.6989009380340576 0.8314695954322815 -2.3432180881500244 -0.7635712027549744 0.7071067690849304 -2.3432180881500244 -0.6989008784294128 0.7071066498756409 -0.7071071863174438 -0.6989009380340576 0.7071065306663513 0.7071068286895752 -0.6989009380340576 0.7071064114570618 2.343219041824341 -0.6989009976387024 0.8314692378044128 2.34321928024292 -0.7635712027549744 0.8314693570137024 0.555570125579834 -0.7635712027549744 0.7071065306663513 0.7071068286895752 -0.6989009380340576 0.8314692378044128 2.34321928024292 -0.7635712027549744 0.7071066498756409 -0.7071071863174438 -0.6989009380340576 0.7071067690849304 -2.3432180881500244 -0.6989008784294128 0.555570125579834 -0.8314698934555054 -0.6458274722099304 0.7071067690849304 -2.3432180881500244 -0.6989008784294128 0.5555702447891235 -2.3432180881500244 -0.6458274722099304 0.555570125579834 -0.8314698934555054 -0.6458274722099304 0.5555700063705444 0.8314695358276367 -0.6458274722099304 0.5555698871612549 2.343219041824341 -0.6458274722099304 0.7071064114570618 2.343219041824341 -0.6989009976387024 0.7071065306663513 0.7071068286895752 -0.6989009380340576 0.5555700063705444 0.8314695358276367 -0.6458274722099304 0.7071064114570618 2.343219041824341 -0.6989009976387024 0.555570125579834 -0.8314698934555054 -0.6458274722099304 0.5555702447891235 -2.3432180881500244 -0.6458274722099304 0.3826833963394165 -0.9238797426223755 -0.6063901782035828 0.5555702447891235 -2.3432180881500244 -0.6458274722099304 0.38268348574638367 -2.3432180881500244 -0.6063901782035828 0.3826833963394165 -0.9238797426223755 -0.6063901782035828 0.38268324732780457 0.9238795042037964 -0.6063902378082275 0.382683128118515 2.3432188034057617 -0.6063902974128723 0.5555698871612549 2.343219041824341 -0.6458274722099304 0.5555698871612549 2.343219041824341 -0.6458274722099304 0.5555700063705444 0.8314695358276367 -0.6458274722099304 0.38268324732780457 0.9238795042037964 -0.6063902378082275 0.3826833963394165 -0.9238797426223755 -0.6063901782035828 0.38268348574638367 -2.3432180881500244 -0.6063901782035828 0.19509027898311615 -0.9807857275009155 -0.5821048617362976 0.38268348574638367 -2.3432180881500244 -0.6063901782035828 0.1950903832912445 -2.3432180881500244 -0.5821048617362976 0.19509027898311615 -0.9807857275009155 -0.5821048617362976 0.1950901299715042 0.9807852506637573 -0.5821049213409424 0.19509002566337585 2.3432188034057617 -0.5821049809455872 0.382683128118515 2.3432188034057617 -0.6063902974128723 0.19509027898311615 -0.9807857275009155 -0.5821048617362976 0.1950903832912445 -2.3432180881500244 -0.5821048617362976 -2.6030491540041112e-08 -1.0 -0.5739046931266785 0.1950903832912445 -2.3432180881500244 -0.5821048617362976 7.537965274195813e-08 -2.3432180881500244 -0.5739046931266785 -2.6030491540041112e-08 -1.0 -0.5739046931266785 -1.7702629406812775e-07 1.0 -0.5739047527313232 -2.784365165098279e-07 2.343219041824341 -0.573904812335968 0.19509002566337585 2.3432188034057617 -0.5821049809455872 0.19509002566337585 2.3432188034057617 -0.5821049809455872 0.1950901299715042 0.9807852506637573 -0.5821049213409424 -1.7702629406812775e-07 1.0 -0.5739047527313232 -2.6030491540041112e-08 -1.0 -0.5739046931266785 7.537965274195813e-08 -2.3432180881500244 -0.5739046931266785 -0.19509023427963257 -2.3432180881500244 -0.5821048617362976 -0.19509048759937286 0.9807852506637573 -0.5821049213409424 -0.19509059190750122 2.3432188034057617 -0.5821049809455872 -1.7702629406812775e-07 1.0 -0.5739047527313232 -1.7702629406812775e-07 1.0 -0.5739047527313232 -0.19509059190750122 2.3432188034057617 -0.5821049809455872 -2.784365165098279e-07 2.343219041824341 -0.573904812335968 -2.6030491540041112e-08 -1.0 -0.5739046931266785 -0.19509023427963257 -2.3432180881500244 -0.5821048617362976 -0.19509033858776093 -0.9807857275009155 -0.5821048617362976 -0.19509033858776093 -0.9807857275009155 -0.5821048617362976 -0.19509023427963257 -2.3432180881500244 -0.5821048617362976 -0.3826833665370941 -2.3432180881500244 -0.6063901782035828 -0.19509033858776093 -0.9807857275009155 -0.5821048617362976 -0.3826833665370941 -2.3432180881500244 -0.6063901782035828 -0.3826834559440613 -0.9238797426223755 -0.6063901782035828 -0.38268372416496277 2.3432188034057617 -0.6063902974128723 -0.19509059190750122 2.3432188034057617 -0.5821049809455872 -0.19509048759937286 0.9807852506637573 -0.5821049213409424 -0.3826836049556732 0.9238795042037964 -0.6063902378082275 -0.38268372416496277 2.3432188034057617 -0.6063902974128723 -0.19509048759937286 0.9807852506637573 -0.5821049213409424 -0.3826834559440613 -0.9238797426223755 -0.6063901782035828 -0.3826833665370941 -2.3432180881500244 -0.6063901782035828 -0.555570125579834 -2.3432180881500244 -0.6458273530006409 -0.555570125579834 -2.3432180881500244 -0.6458273530006409 -0.5555702447891235 -0.8314698934555054 -0.6458273530006409 -0.3826834559440613 -0.9238797426223755 -0.6063901782035828 -0.5555703639984131 0.8314695358276367 -0.6458274126052856 -0.5555704832077026 2.343219041824341 -0.6458274126052856 -0.3826836049556732 0.9238795042037964 -0.6063902378082275 -0.5555704832077026 2.343219041824341 -0.6458274126052856 -0.38268372416496277 2.3432188034057617 -0.6063902974128723 -0.3826836049556732 0.9238795042037964 -0.6063902378082275 -0.5555702447891235 -0.8314698934555054 -0.6458273530006409 -0.555570125579834 -2.3432180881500244 -0.6458273530006409 -0.7071066498756409 -2.3432180881500244 -0.6989008784294128 -0.7071066498756409 -2.3432180881500244 -0.6989008784294128 -0.7071067690849304 -0.7071071863174438 -0.6989008784294128 -0.5555702447891235 -0.8314698934555054 -0.6458273530006409 -0.70710688829422 0.7071068286895752 -0.6989008784294128 -0.7071070075035095 2.343219041824341 -0.6989008784294128 -0.5555703639984131 0.8314695358276367 -0.6458274126052856 -0.7071070075035095 2.343219041824341 -0.6989008784294128 -0.5555704832077026 2.343219041824341 -0.6458274126052856 -0.5555703639984131 0.8314695358276367 -0.6458274126052856 -0.7071067690849304 -0.7071071863174438 -0.6989008784294128 -0.7071066498756409 -2.3432180881500244 -0.6989008784294128 -0.8314694762229919 -2.3432180881500244 -0.7635710835456848 -0.7071067690849304 -0.7071071863174438 -0.6989008784294128 -0.8314694762229919 -2.3432180881500244 -0.7635710835456848 -0.8314695954322815 -0.5555702447891235 -0.7635711431503296 -0.8314698338508606 2.34321928024292 -0.7635712027549744 -0.7071070075035095 2.343219041824341 -0.6989008784294128 -0.70710688829422 0.7071068286895752 -0.6989008784294128 -0.831469714641571 0.555570125579834 -0.7635711431503296 -0.8314698338508606 2.34321928024292 -0.7635712027549744 -0.70710688829422 0.7071068286895752 -0.6989008784294128 -0.8314695954322815 -0.5555702447891235 -0.7635711431503296 -0.8314694762229919 -2.3432180881500244 -0.7635710835456848 -0.9238794445991516 -2.3432180881500244 -0.8373528122901917 -0.8314695954322815 -0.5555702447891235 -0.7635711431503296 -0.9238794445991516 -2.3432180881500244 -0.8373528122901917 -0.9238795638084412 -0.38268375396728516 -0.8373528718948364 -0.9238798022270203 2.343219041824341 -0.8373529314994812 -0.8314698338508606 2.34321928024292 -0.7635712027549744 -0.831469714641571 0.555570125579834 -0.7635711431503296 -0.9238795638084412 -0.38268375396728516 -0.8373528718948364 -0.9238794445991516 -2.3432180881500244 -0.8373528122901917 -0.9807851910591125 -2.3432180881500244 -0.9174107909202576 -0.9238795638084412 -0.38268375396728516 -0.8373528718948364 -0.9807851910591125 -2.3432180881500244 -0.9174107909202576 -0.9807853698730469 -0.19509053230285645 -0.9174107909202576 -0.9807855486869812 2.343219041824341 -0.9174107909202576 -0.9238798022270203 2.343219041824341 -0.8373529314994812 -0.9238796234130859 0.3826833963394165 -0.8373528718948364 -0.9807853698730469 -0.19509053230285645 -0.9174107909202576 -0.9807851910591125 -2.3432180881500244 -0.9174107909202576 -0.9999998807907104 -2.3432180881500244 -1.0006681680679321 -1.0 0.0 -1.0 -1.000000238418579 2.343219041824341 -1.0006682872772217 -0.9807853698730469 0.19509005546569824 -0.9174107909202576 -1.000000238418579 2.343219041824341 -1.0006682872772217 -0.9807855486869812 2.343219041824341 -0.9174107909202576 -0.9807853698730469 0.19509005546569824 -0.9174107909202576 -0.9807853698730469 -0.19509053230285645 -0.9174107909202576 -0.9999998807907104 -2.3432180881500244 -1.0006681680679321 -1.0 0.0 -1.0 -1.0 0.0 -1.0 -0.9999998807907104 -2.3432180881500244 -1.0006681680679321 -0.9807851910591125 -2.3432180881500244 -1.0839256048202515 -0.9807851910591125 -2.3432180881500244 -1.0839256048202515 -0.9807855486869812 2.343219041824341 -1.083925724029541 -1.0 0.0 -1.0 -0.9238794445991516 -2.3432180881500244 -1.1639835834503174 -0.9238798022270203 2.343219041824341 -1.1639835834503174 -0.9807855486869812 2.343219041824341 -1.083925724029541 -0.9238794445991516 -2.3432180881500244 -1.1639835834503174 -0.8314695954322815 -2.3432183265686035 -1.2377653121948242 -0.8314699530601501 2.343219041824341 -1.2377653121948242 -0.7071067690849304 -2.3432180881500244 -1.3024355173110962 -0.7071071267127991 2.343219041824341 -1.3024356365203857 -0.8314699530601501 2.343219041824341 -1.2377653121948242 -0.5555702447891235 -2.3432180881500244 -1.3555090427398682 -0.5555706024169922 2.343219041824341 -1.3555090427398682 -0.7071071267127991 2.343219041824341 -1.3024356365203857 -0.38268348574638367 -2.3432178497314453 -1.3949462175369263 -0.3826838433742523 2.343219041824341 -1.3949463367462158 -0.5555706024169922 2.343219041824341 -1.3555090427398682 -0.1950903832912445 -2.3432178497314453 -1.4192315340042114 -0.19509074091911316 2.343219041824341 -1.419231653213501 -0.3826838433742523 2.343219041824341 -1.3949463367462158 -0.1950903832912445 -2.3432178497314453 -1.4192315340042114 -7.56161355752738e-08 -2.3432180881500244 -1.4274317026138306 -4.2943230482705985e-07 2.343219041824341 -1.4274318218231201</float_array>
				<technique_common>
				<accessor source="#id-mesh-7-positions-array" count="486" stride="3">
					<param name="X" type="float"/>
					<param name="Y" type="float"/>
					<param name="Z" type="float"/>
				</accessor>
				</technique_common>
			</source>
			<source id="id-mesh-7-normals">
				<float_array id="id-mesh-7-normals-array" count="1458"> -0.09801730513572693 -0.9951847195625305 -1.1587765413878515e-08 -0.09801730513572693 -0.9951847195625305 -1.1587765413878515e-08 -0.09801730513572693 -0.9951847195625305 -1.1587765413878515e-08 -0.2902846932411194 -0.9569403529167175 7.208824825966076e-08 -0.2902846932411194 -0.9569403529167175 7.208824825966076e-08 -0.2902846932411194 -0.9569403529167175 7.208824825966076e-08 -0.4713965356349945 -0.8819213509559631 8.842176413281777e-08 -0.4713965356349945 -0.8819213509559631 8.842176413281777e-08 -0.4713965356349945 -0.8819213509559631 8.842176413281777e-08 -0.6343934535980225 -0.77301025390625 7.422095649189941e-08 -0.6343934535980225 -0.77301025390625 7.422095649189941e-08 -0.6343934535980225 -0.77301025390625 7.422095649189941e-08 -0.7730104327201843 -0.6343933343887329 7.281474978526603e-08 -0.7730104327201843 -0.6343933343887329 7.281474978526603e-08 -0.7730104327201843 -0.6343933343887329 7.281474978526603e-08 -0.8819212317466736 -0.471396803855896 1.6284907644603663e-07 -0.8819212317466736 -0.471396803855896 1.6284907644603663e-07 -0.8819212317466736 -0.471396803855896 1.6284907644603663e-07 -0.9569403529167175 -0.29028433561325073 1.34284690034292e-07 -0.9569403529167175 -0.29028433561325073 1.34284690034292e-07 -0.9569403529167175 -0.29028433561325073 1.34284690034292e-07 -0.9951847195625305 -0.09801733493804932 1.3785108876618324e-07 -0.9951847195625305 -0.09801733493804932 1.3785108876618324e-07 -0.9951847195625305 -0.09801733493804932 1.3785108876618324e-07 -0.9951847195625305 0.09801733493804932 1.1335587402072633e-07 -0.9951847195625305 0.09801733493804932 1.1335587402072633e-07 -0.9951847195625305 0.09801733493804932 1.1335587402072633e-07 -0.9569405317306519 0.2902841866016388 8.919803207163568e-08 -0.9569405317306519 0.2902841866016388 8.919803207163568e-08 -0.9569405317306519 0.2902841866016388 8.919803207163568e-08 -0.8819210529327393 0.4713972210884094 2.0685506640916174e-08 -0.8819210529327393 0.4713972210884094 2.0685506640916174e-08 -0.8819210529327393 0.4713972210884094 2.0685506640916174e-08 -0.7730112671852112 0.634392261505127 4.3101703539605296e-08 -0.7730112671852112 0.634392261505127 4.3101703539605296e-08 -0.7730112671852112 0.634392261505127 4.3101703539605296e-08 -0.6343936920166016 0.7730100750923157 -1.3422763345261046e-07 -0.6343936920166016 0.7730100750923157 -1.3422763345261046e-07 -0.6343936920166016 0.7730100750923157 -1.3422763345261046e-07 -0.47139665484428406 0.8819213509559631 -1.8474129603873735e-07 -0.47139665484428406 0.8819213509559631 -1.8474129603873735e-07 -0.47139665484428406 0.8819213509559631 -1.8474129603873735e-07 -0.29028570652008057 0.9569399356842041 -1.892765340016922e-07 -0.29028570652008057 0.9569399356842041 -1.892765340016922e-07 -0.29028570652008057 0.9569399356842041 -1.892765340016922e-07 -0.09801490604877472 0.9951850175857544 -3.8436422755694366e-07 -0.09801490604877472 0.9951850175857544 -3.8436422755694366e-07 -0.09801490604877472 0.9951850175857544 -3.8436422755694366e-07 0.09801728278398514 0.9951847195625305 2.4449596125464268e-08 0.09801728278398514 0.9951847195625305 2.4449596125464268e-08 0.09801728278398514 0.9951847195625305 2.4449596125464268e-08 0.29028457403182983 0.9569404125213623 -2.864266264168691e-07 0.29028457403182983 0.9569404125213623 -2.864266264168691e-07 0.29028457403182983 0.9569404125213623 -2.864266264168691e-07 0.47139665484428406 0.8819212913513184 -9.463832384426496e-08 0.47139665484428406 0.8819212913513184 -9.463832384426496e-08 0.47139665484428406 0.8819212913513184 -9.463832384426496e-08 0.6343936324119568 0.7730101943016052 -1.385559897926214e-07 0.6343936324119568 0.7730101943016052 -1.385559897926214e-07 0.6343936324119568 0.7730101943016052 -1.385559897926214e-07 0.7730103731155396 0.6343933343887329 -1.7896994108923536e-07 0.7730103731155396 0.6343933343887329 -1.7896994108923536e-07 0.7730103731155396 0.6343933343887329 -1.7896994108923536e-07 0.8819211721420288 0.4713968336582184 0.0 0.8819211721420288 0.4713968336582184 0.0 0.8819211721420288 0.4713968336582184 0.0 0.9569404125213623 0.2902843952178955 -7.494218579040535e-08 0.9569404125213623 0.2902843952178955 -7.494218579040535e-08 0.9569404125213623 0.2902843952178955 -7.494218579040535e-08 0.9951847195625305 0.09801733493804932 -7.233256837935187e-08 0.9951847195625305 0.09801733493804932 -7.233256837935187e-08 0.9951847195625305 0.09801733493804932 -7.233256837935187e-08 0.9951847195625305 -0.09801733493804932 -4.7696186555867826e-08 0.9951847195625305 -0.09801733493804932 -4.7696186555867826e-08 0.9951847195625305 -0.09801733493804932 -4.7696186555867826e-08 0.9569404125213623 -0.2902846038341522 -2.4918223928693806e-08 0.9569404125213623 -0.2902846038341522 -2.4918223928693806e-08 0.9569404125213623 -0.2902846038341522 -2.4918223928693806e-08 0.8819212913513184 -0.47139671444892883 -3.628503719710352e-08 0.8819212913513184 -0.47139671444892883 -3.628503719710352e-08 0.8819212913513184 -0.47139671444892883 -3.628503719710352e-08 0.773010790348053 -0.6343928575515747 -4.778994089349453e-09 0.773010790348053 -0.6343928575515747 -4.778994089349453e-09 0.773010790348053 -0.6343928575515747 -4.778994089349453e-09 0.6343932151794434 -0.7730104327201843 -3.0706377884826e-08 0.6343932151794434 -0.7730104327201843 -3.0706377884826e-08 0.6343932151794434 -0.7730104327201843 -3.0706377884826e-08 0.4713970720767975 -0.8819210529327393 6.020313492172136e-08 0.4713970720767975 -0.8819210529327393 6.020313492172136e-08 0.4713970720767975 -0.8819210529327393 6.020313492172136e-08 0.290284663438797 -0.9569403529167175 -7.203913554576502e-08 0.290284663438797 -0.9569403529167175 -7.203913554576502e-08 0.290284663438797 -0.9569403529167175 -7.203913554576502e-08 0.09801729023456573 -0.9951846599578857 7.5781038333389e-08 0.09801729023456573 -0.9951846599578857 7.5781038333389e-08 0.09801729023456573 -0.9951846599578857 7.5781038333389e-08 -0.041996296495199203 2.213598548905793e-08 0.9991177320480347 -0.041996296495199203 2.213598548905793e-08 0.9991177320480347 -0.041996296495199203 2.213598548905793e-08 0.9991177320480347 -0.12838590145111084 1.581860686883374e-08 0.9917243123054504 -0.12838590145111084 1.581860686883374e-08 0.9917243123054504 -0.12838590145111084 1.581860686883374e-08 0.9917243123054504 -0.22239749133586884 8.965419517892315e-09 0.9749560356140137 -0.22239749133586884 8.965419517892315e-09 0.9749560356140137 -0.22239749133586884 8.965419517892315e-09 0.9749560356140137 -0.3305489420890808 -9.901588882144097e-09 0.9437889456748962 -0.3305489420890808 -9.901588882144097e-09 0.9437889456748962 -0.3305489420890808 -9.901588882144097e-09 0.9437889456748962 -0.46136146783828735 -3.40255787989463e-08 0.8872122764587402 -0.46136146783828735 -3.40255787989463e-08 0.8872122764587402 -0.46136146783828735 -3.40255787989463e-08 0.8872122764587402 -0.6239409446716309 -5.3777625907969195e-08 0.7814715504646301 -0.6239409446716309 -5.3777625907969195e-08 0.7814715504646301 -0.6239409446716309 -5.3777625907969195e-08 0.7814715504646301 -0.8150720000267029 -6.474399327771607e-08 0.579359769821167 -0.8150720000267029 -6.474399327771607e-08 0.579359769821167 -0.8150720000267029 -6.474399327771607e-08 0.579359769821167 -0.9743873476982117 6.400509300874546e-05 0.22487622499465942 -0.9743873476982117 6.400509300874546e-05 0.22487622499465942 -0.9743873476982117 6.400509300874546e-05 0.22487622499465942 -0.9740204811096191 -6.475498230429366e-05 -0.2264600247144699 -0.9740204811096191 -6.475498230429366e-05 -0.2264600247144699 -0.9740204811096191 -6.475498230429366e-05 -0.2264600247144699 -0.12838612496852875 -5.197562558123536e-08 -0.9917242527008057 -0.12838612496852875 -5.197562558123536e-08 -0.9917242527008057 -0.12838612496852875 -5.197562558123536e-08 -0.9917242527008057 0.6239407062530518 6.427469401160124e-08 -0.7814717888832092 0.6239407062530518 6.427469401160124e-08 -0.7814717888832092 0.6239407062530518 6.427469401160124e-08 -0.7814717888832092 0.8150724768638611 7.062383389211391e-08 -0.5793589949607849 0.8150724768638611 7.062383389211391e-08 -0.5793589949607849 0.8150724768638611 7.062383389211391e-08 -0.5793589949607849 0.974387526512146 6.430338544305414e-05 0.22487559914588928 0.974387526512146 6.430338544305414e-05 0.22487559914588928 0.974387526512146 6.430338544305414e-05 0.22487559914588928 0.8150725960731506 8.716358479432529e-08 0.5793587565422058 0.8150725960731506 8.716358479432529e-08 0.5793587565422058 0.8150725960731506 8.716358479432529e-08 0.5793587565422058 0.6239404082298279 5.377772893666588e-08 0.7814719676971436 0.6239404082298279 5.377772893666588e-08 0.7814719676971436 0.6239404082298279 5.377772893666588e-08 0.7814719676971436 0.46136024594306946 3.402559656251469e-08 0.887212872505188 0.46136024594306946 3.402559656251469e-08 0.887212872505188 0.46136024594306946 3.402559656251469e-08 0.887212872505188 0.3305477797985077 5.5720441594075965e-08 0.9437893033027649 0.3305477797985077 5.5720441594075965e-08 0.9437893033027649 0.3305477797985077 5.5720441594075965e-08 0.9437893033027649 0.22239750623703003 1.3448130609106101e-08 0.9749560356140137 0.22239750623703003 1.3448130609106101e-08 0.9749560356140137 0.22239750623703003 1.3448130609106101e-08 0.9749560356140137 0.12838593125343323 3.463467379560825e-08 0.9917243123054504 0.12838593125343323 3.463467379560825e-08 0.9917243123054504 0.12838593125343323 3.463467379560825e-08 0.9917243123054504 0.04199525713920593 2.8624038250768535e-08 0.9991177916526794 0.04199525713920593 2.8624038250768535e-08 0.9991177916526794 0.04199525713920593 2.8624038250768535e-08 0.9991177916526794 -0.09801730513572693 -0.9951847195625305 0.0 -0.09801730513572693 -0.9951847195625305 0.0 -0.09801730513572693 -0.9951847195625305 0.0 -0.290284663438797 -0.9569403529167175 0.0 -0.290284663438797 -0.9569403529167175 0.0 -0.290284663438797 -0.9569403529167175 0.0 -0.47139692306518555 -0.881921112537384 1.847411681410449e-07 -0.47139692306518555 -0.881921112537384 1.847411681410449e-07 -0.47139692306518555 -0.881921112537384 1.847411681410449e-07 -0.6343929171562195 -0.7730106711387634 8.94849847554724e-08 -0.6343929171562195 -0.7730106711387634 8.94849847554724e-08 -0.6343929171562195 -0.7730106711387634 8.94849847554724e-08 -0.773010790348053 -0.6343927979469299 1.2930522075293993e-07 -0.773010790348053 -0.6343927979469299 1.2930522075293993e-07 -0.773010790348053 -0.6343927979469299 1.2930522075293993e-07 -0.8819212913513184 -0.47139671444892883 1.447983919433682e-07 -0.8819212913513184 -0.47139671444892883 1.447983919433682e-07 -0.8819212913513184 -0.47139671444892883 1.447983919433682e-07 -0.9569405913352966 -0.29028400778770447 1.58574195552319e-07 -0.9569405913352966 -0.29028400778770447 1.58574195552319e-07 -0.9569405913352966 -0.29028400778770447 1.58574195552319e-07 -0.995184600353241 -0.09801862388849258 0.0 -0.995184600353241 -0.09801862388849258 0.0 -0.995184600353241 -0.09801862388849258 0.0 -0.995184600353241 0.09801846742630005 0.0 -0.995184600353241 0.09801846742630005 0.0 -0.995184600353241 0.09801846742630005 0.0 -0.9569404125213623 0.2902843952178955 5.171368755441108e-08 -0.9569404125213623 0.2902843952178955 5.171368755441108e-08 -0.9569404125213623 0.2902843952178955 5.171368755441108e-08 -0.8819215893745422 0.4713962972164154 6.465268143074354e-08 -0.8819215893745422 0.4713962972164154 6.465268143074354e-08 -0.8819215893745422 0.4713962972164154 6.465268143074354e-08 -0.7730100154876709 0.6343936920166016 -1.342273776572256e-07 -0.7730100154876709 0.6343936920166016 -1.342273776572256e-07 -0.7730100154876709 0.6343936920166016 -1.342273776572256e-07 -0.6343929171562195 0.7730107307434082 -9.237055564881302e-08 -0.6343929171562195 0.7730107307434082 -9.237055564881302e-08 -0.6343929171562195 0.7730107307434082 -9.237055564881302e-08 -0.4713968336582184 0.8819212317466736 0.0 -0.4713968336582184 0.8819212317466736 0.0 -0.4713968336582184 0.8819212317466736 0.0 -0.2902846038341522 0.9569403529167175 -1.9218201430248882e-07 -0.2902846038341522 0.9569403529167175 -1.9218201430248882e-07 -0.2902846038341522 0.9569403529167175 -1.9218201430248882e-07 -0.09801729768514633 0.9951847195625305 0.0 -0.09801729768514633 0.9951847195625305 0.0 -0.09801729768514633 0.9951847195625305 0.0 0.09801491349935532 0.9951849579811096 -3.843642559786531e-07 0.09801491349935532 0.9951849579811096 -3.843642559786531e-07 0.09801491349935532 0.9951849579811096 -3.843642559786531e-07 0.2902858257293701 0.9569399356842041 -9.463830252798289e-08 0.2902858257293701 0.9569399356842041 -9.463830252798289e-08 0.2902858257293701 0.9569399356842041 -9.463830252798289e-08 0.4713965952396393 0.8819213509559631 -9.237064801936867e-08 0.4713965952396393 0.8819213509559631 -9.237064801936867e-08 0.4713965952396393 0.8819213509559631 -9.237064801936867e-08 0.6343925595283508 0.7730109691619873 -1.7896987003496179e-07 0.6343925595283508 0.7730109691619873 -1.7896987003496179e-07 0.6343925595283508 0.7730109691619873 -1.7896987003496179e-07 0.7730112671852112 0.634392261505127 0.0 0.7730112671852112 0.634392261505127 0.0 0.7730112671852112 0.634392261505127 0.0 0.8819210529327393 0.4713972210884094 -1.0342753142822403e-07 0.8819210529327393 0.4713972210884094 -1.0342753142822403e-07 0.8819210529327393 0.4713972210884094 -1.0342753142822403e-07 0.9569401144981384 0.2902853190898895 -9.910888110198357e-08 0.9569401144981384 0.2902853190898895 -9.910888110198357e-08 0.9569401144981384 0.2902853190898895 -9.910888110198357e-08 0.9951847791671753 0.09801658242940903 0.0 0.9951847791671753 0.09801658242940903 0.0 0.9951847791671753 0.09801658242940903 0.0 0.9951847791671753 -0.09801651537418365 0.0 0.9951847791671753 -0.09801651537418365 0.0 0.9951847791671753 -0.09801651537418365 0.0 0.9569401741027832 -0.29028502106666565 -4.137094222755877e-08 0.9569401741027832 -0.29028502106666565 -4.137094222755877e-08 0.9569401741027832 -0.29028502106666565 -4.137094222755877e-08 0.8819215893745422 -0.4713963270187378 -2.1550894402366794e-08 0.8819215893745422 -0.4713963270187378 -2.1550894402366794e-08 0.8819215893745422 -0.4713963270187378 -2.1550894402366794e-08 0.7730104327201843 -0.6343933343887329 -8.948497054461768e-08 0.7730104327201843 -0.6343933343887329 -8.948497054461768e-08 0.7730104327201843 -0.6343933343887329 -8.948497054461768e-08 0.6343930959701538 -0.7730106115341187 -4.618529203526123e-08 0.6343930959701538 -0.7730106115341187 -4.618529203526123e-08 0.6343930959701538 -0.7730106115341187 -4.618529203526123e-08 0.4713965356349945 -0.8819213509559631 0.0 0.4713965356349945 -0.8819213509559631 0.0 0.4713965356349945 -0.8819213509559631 0.0 0.2902846932411194 -0.9569403529167175 0.0 0.2902846932411194 -0.9569403529167175 0.0 0.2902846932411194 -0.9569403529167175 0.0 0.09801729023456573 -0.9951847195625305 -9.659165556286098e-08 0.09801729023456573 -0.9951847195625305 -9.659165556286098e-08 0.09801729023456573 -0.9951847195625305 -9.659165556286098e-08 -0.04199525713920593 2.226314066433588e-08 0.9991177916526794 -0.04199525713920593 2.226314066433588e-08 0.9991177916526794 -0.04199525713920593 2.226314066433588e-08 0.9991177916526794 -0.12838590145111084 1.4708195550383607e-08 0.9917242527008057 -0.12838590145111084 1.4708195550383607e-08 0.9917242527008057 -0.12838590145111084 1.4708195550383607e-08 0.9917242527008057 -0.22239750623703003 -1.793084081214147e-08 0.9749560356140137 -0.22239750623703003 -1.793084081214147e-08 0.9749560356140137 -0.22239750623703003 -1.793084081214147e-08 0.9749560356140137 -0.3305477797985077 -3.96063697394311e-08 0.9437893033027649 -0.3305477797985077 -3.96063697394311e-08 0.9437893033027649 -0.3305477797985077 -3.96063697394311e-08 0.9437893033027649 -0.4613625705242157 -3.402555392995055e-08 0.8872117400169373 -0.4613625705242157 -3.402555392995055e-08 0.8872117400169373 -0.4613625705242157 -3.402555392995055e-08 0.8872117400169373 -0.6239398717880249 -5.3777682751388056e-08 0.7814722657203674 -0.6239398717880249 -5.3777682751388056e-08 0.7814722657203674 -0.6239398717880249 -5.3777682751388056e-08 0.7814722657203674 -0.8150727152824402 -6.474388669630571e-08 0.5793587565422058 -0.8150727152824402 -6.474388669630571e-08 0.5793587565422058 -0.8150727152824402 -6.474388669630571e-08 0.5793587565422058 -0.9747778177261353 -7.386148581645102e-08 0.2231777161359787 -0.9747778177261353 -7.386148581645102e-08 0.2231777161359787 -0.9747778177261353 -7.386148581645102e-08 0.2231777161359787 -0.9743874073028564 -6.415395182557404e-05 0.22487615048885345 -0.9743874073028564 -6.415395182557404e-05 0.22487615048885345 -0.9743874073028564 -6.415395182557404e-05 0.22487615048885345 -0.97402024269104 6.468017818406224e-05 -0.226460799574852 -0.97402024269104 6.468017818406224e-05 -0.226460799574852 -0.97402024269104 6.468017818406224e-05 -0.226460799574852 -0.9743874073028564 -9.366303288516065e-08 -0.22487585246562958 -0.9743874073028564 -9.366303288516065e-08 -0.22487585246562958 -0.9743874073028564 -9.366303288516065e-08 -0.22487585246562958 -0.9743873476982117 -8.118368555187772e-08 -0.2248763144016266 -0.9743873476982117 -8.118368555187772e-08 -0.2248763144016266 -0.9743873476982117 -8.118368555187772e-08 -0.2248763144016266 -0.8150725960731506 -1.4124788094704854e-07 -0.5793588757514954 -0.8150725960731506 -1.4124788094704854e-07 -0.5793588757514954 -0.8150725960731506 -1.4124788094704854e-07 -0.5793588757514954 -0.8150720596313477 -4.712267553941274e-08 -0.5793595314025879 -0.8150720596313477 -4.712267553941274e-08 -0.5793595314025879 -0.8150720596313477 -4.712267553941274e-08 -0.5793595314025879 -0.8150723576545715 0.0 -0.5793591737747192 -0.8150723576545715 0.0 -0.5793591737747192 -0.8150723576545715 0.0 -0.5793591737747192 -0.8150721788406372 -1.4124788094704854e-07 -0.5793595910072327 -0.8150721788406372 -1.4124788094704854e-07 -0.5793595910072327 -0.8150721788406372 -1.4124788094704854e-07 -0.5793595910072327 -0.62394118309021 -6.427474374959274e-08 -0.781471312046051 -0.62394118309021 -6.427474374959274e-08 -0.781471312046051 -0.62394118309021 -6.427474374959274e-08 -0.781471312046051 -0.6239412426948547 0.0 -0.7814712524414062 -0.6239412426948547 0.0 -0.7814712524414062 -0.6239412426948547 0.0 -0.7814712524414062 -0.6239420771598816 0.0 -0.7814705967903137 -0.6239420771598816 0.0 -0.7814705967903137 -0.6239420771598816 0.0 -0.7814705967903137 -0.6239408254623413 -1.285494164449119e-07 -0.7814716100692749 -0.6239408254623413 -1.285494164449119e-07 -0.7814716100692749 -0.6239408254623413 -1.285494164449119e-07 -0.7814716100692749 -0.4613611698150635 -2.973343882217705e-08 -0.8872124552726746 -0.4613611698150635 -2.973343882217705e-08 -0.8872124552726746 -0.4613611698150635 -2.973343882217705e-08 -0.8872124552726746 -0.4613618850708008 -5.4783171776762174e-08 -0.8872120380401611 -0.4613618850708008 -5.4783171776762174e-08 -0.8872120380401611 -0.4613618850708008 -5.4783171776762174e-08 -0.8872120380401611 -0.46136200428009033 -9.746194251647466e-08 -0.8872120380401611 -0.46136200428009033 -9.746194251647466e-08 -0.8872120380401611 -0.46136200428009033 -9.746194251647466e-08 -0.8872120380401611 -0.46136173605918884 -2.9733413953181298e-08 -0.8872122168540955 -0.46136173605918884 -2.9733413953181298e-08 -0.8872122168540955 -0.46136173605918884 -2.9733413953181298e-08 -0.8872122168540955 -0.3305487632751465 -8.508561677444959e-08 -0.9437888264656067 -0.3305487632751465 -8.508561677444959e-08 -0.9437888264656067 -0.3305487632751465 -8.508561677444959e-08 -0.9437888264656067 -0.33054783940315247 0.0 -0.9437893033027649 -0.33054783940315247 0.0 -0.9437893033027649 -0.33054783940315247 0.0 -0.9437893033027649 -0.3305489718914032 -6.139003261296239e-08 -0.9437888860702515 -0.3305489718914032 -6.139003261296239e-08 -0.9437888860702515 -0.3305489718914032 -6.139003261296239e-08 -0.9437888860702515 -0.33054694533348083 -2.836187107391197e-08 -0.9437894821166992 -0.33054694533348083 -2.836187107391197e-08 -0.9437894821166992 -0.33054694533348083 -2.836187107391197e-08 -0.9437894821166992 -0.22239749133586884 -1.3896452877304455e-08 -0.9749560356140137 -0.22239749133586884 -1.3896452877304455e-08 -0.9749560356140137 -0.22239749133586884 -1.3896452877304455e-08 -0.9749560356140137 -0.22239771485328674 -2.9602443163412318e-08 -0.9749559760093689 -0.22239771485328674 -2.9602443163412318e-08 -0.9749559760093689 -0.22239771485328674 -2.9602443163412318e-08 -0.9749559760093689 -0.2223978340625763 -5.9204857905115205e-08 -0.9749559760093689 -0.2223978340625763 -5.9204857905115205e-08 -0.9749559760093689 -0.2223978340625763 -5.9204857905115205e-08 -0.9749559760093689 -0.22239738702774048 -2.7792887991040516e-08 -0.9749561548233032 -0.22239738702774048 -2.7792887991040516e-08 -0.9749561548233032 -0.22239738702774048 -2.7792887991040516e-08 -0.9749561548233032 -0.1283862292766571 -6.9377441569429266e-09 -0.9917241930961609 -0.1283862292766571 -6.9377441569429266e-09 -0.9917241930961609 -0.1283862292766571 -6.9377441569429266e-09 -0.9917241930961609 -0.12838612496852875 -1.0841274544759472e-08 -0.9917241930961609 -0.12838612496852875 -1.0841274544759472e-08 -0.9917241930961609 -0.12838612496852875 -1.0841274544759472e-08 -0.9917241930961609 -0.12838608026504517 -5.4206349631158446e-08 -0.9917241930961609 -0.12838608026504517 -5.4206349631158446e-08 -0.9917241930961609 -0.12838608026504517 -5.4206349631158446e-08 -0.9917241930961609 -0.041995156556367874 -3.0631925884705424e-09 -0.9991177916526794 -0.041995156556367874 -3.0631925884705424e-09 -0.9991177916526794 -0.041995156556367874 -3.0631925884705424e-09 -0.9991177916526794 -0.041995927691459656 -3.5508689322227838e-09 -0.9991177916526794 -0.041995927691459656 -3.5508689322227838e-09 -0.9991177916526794 -0.041995927691459656 -3.5508689322227838e-09 -0.9991177916526794 -0.041995588690042496 -4.7492843435748e-08 -0.9991177916526794 -0.041995588690042496 -4.7492843435748e-08 -0.9991177916526794 -0.041995588690042496 -4.7492843435748e-08 -0.9991177916526794 -0.041995368897914886 -4.726063096427424e-08 -0.9991177916526794 -0.041995368897914886 -4.726063096427424e-08 -0.9991177916526794 -0.041995368897914886 -4.726063096427424e-08 -0.9991177916526794 0.04199592396616936 3.1070099826280284e-09 -0.9991177916526794 0.04199592396616936 3.1070099826280284e-09 -0.9991177916526794 0.04199592396616936 3.1070099826280284e-09 -0.9991177916526794 0.04199555888772011 -4.0259056532931936e-08 -0.9991177916526794 0.04199555888772011 -4.0259056532931936e-08 -0.9991177916526794 0.04199555888772011 -4.0259056532931936e-08 -0.9991177916526794 0.041995588690042496 -4.127882391458115e-08 -0.9991177916526794 0.041995588690042496 -4.127882391458115e-08 -0.9991177916526794 0.041995588690042496 -4.127882391458115e-08 -0.9991177916526794 0.041995156556367874 3.0631925884705424e-09 -0.9991177916526794 0.041995156556367874 3.0631925884705424e-09 -0.9991177916526794 0.041995156556367874 3.0631925884705424e-09 -0.9991177916526794 0.12838612496852875 1.0841274544759472e-08 -0.9917241930961609 0.12838612496852875 1.0841274544759472e-08 -0.9917241930961609 0.12838612496852875 1.0841274544759472e-08 -0.9917241930961609 0.1283862292766571 1.0406616013369785e-08 -0.9917241930961609 0.1283862292766571 1.0406616013369785e-08 -0.9917241930961609 0.1283862292766571 1.0406616013369785e-08 -0.9917241930961609 0.12838605046272278 -3.624023037218649e-08 -0.9917241930961609 0.12838605046272278 -3.624023037218649e-08 -0.9917241930961609 0.12838605046272278 -3.624023037218649e-08 -0.9917241930961609 0.12838609516620636 -3.1219816065686246e-08 -0.9917241930961609 0.12838609516620636 -3.1219816065686246e-08 -0.9917241930961609 0.12838609516620636 -3.1219816065686246e-08 -0.9917241930961609 0.22239726781845093 1.4801223358062998e-08 -0.9749560952186584 0.22239726781845093 1.4801223358062998e-08 -0.9749560952186584 0.22239726781845093 1.4801223358062998e-08 -0.9749560952186584 0.2223968356847763 1.3896452877304455e-08 -0.974956214427948 0.2223968356847763 1.3896452877304455e-08 -0.974956214427948 0.2223968356847763 1.3896452877304455e-08 -0.974956214427948 0.22239691019058228 1.3896443995520258e-08 -0.9749562740325928 0.22239691019058228 1.3896443995520258e-08 -0.9749562740325928 0.22239691019058228 1.3896443995520258e-08 -0.9749562740325928 0.22239714860916138 -1.1161933599623808e-08 -0.974956214427948 0.22239714860916138 -1.1161933599623808e-08 -0.974956214427948 0.22239714860916138 -1.1161933599623808e-08 -0.974956214427948 0.33054912090301514 6.139006103467182e-08 -0.9437887072563171 0.33054912090301514 6.139006103467182e-08 -0.9437887072563171 0.33054912090301514 6.139006103467182e-08 -0.9437887072563171 0.3305484354496002 0.0 -0.9437889456748962 0.3305484354496002 0.0 -0.9437889456748962 0.3305484354496002 0.0 -0.9437889456748962 0.33054929971694946 2.836183909948886e-08 -0.9437886476516724 0.33054929971694946 2.836183909948886e-08 -0.9437886476516724 0.33054929971694946 2.836183909948886e-08 -0.9437886476516724 0.33054810762405396 0.0 -0.9437891244888306 0.33054810762405396 0.0 -0.9437891244888306 0.33054810762405396 0.0 -0.9437891244888306 0.4613611102104187 3.2487363910149725e-08 -0.8872125148773193 0.4613611102104187 3.2487363910149725e-08 -0.8872125148773193 0.4613611102104187 3.2487363910149725e-08 -0.8872125148773193 0.46136274933815 2.0708950998482578e-08 -0.8872116804122925 0.46136274933815 2.0708950998482578e-08 -0.8872116804122925 0.46136274933815 2.0708950998482578e-08 -0.8872116804122925 0.46136239171028137 3.2487307066730864e-08 -0.8872118592262268 0.46136239171028137 3.2487307066730864e-08 -0.8872118592262268 0.46136239171028137 3.2487307066730864e-08 -0.8872118592262268 0.4613609313964844 0.0 -0.8872126340866089 0.4613609313964844 0.0 -0.8872126340866089 0.4613609313964844 0.0 -0.8872126340866089 0.6239407658576965 0.0 -0.7814716696739197 0.6239407658576965 0.0 -0.7814716696739197 0.6239407658576965 0.0 -0.7814716696739197 0.623940110206604 3.91410033273587e-08 -0.7814721465110779 0.623940110206604 3.91410033273587e-08 -0.7814721465110779 0.623940110206604 3.91410033273587e-08 -0.7814721465110779 0.6239411234855652 -2.4547821553255744e-08 -0.7814713716506958 0.6239411234855652 -2.4547821553255744e-08 -0.7814713716506958 0.6239411234855652 -2.4547821553255744e-08 -0.7814713716506958 0.8150720596313477 0.0 -0.5793595314025879 0.8150720596313477 0.0 -0.5793595314025879 0.8150720596313477 0.0 -0.5793595314025879 0.8150725960731506 1.4124768199508253e-07 -0.5793589949607849 0.8150725960731506 1.4124768199508253e-07 -0.5793589949607849 0.8150725960731506 1.4124768199508253e-07 -0.5793589949607849 0.8150723576545715 3.025910189080605e-08 -0.5793591141700745 0.8150723576545715 3.025910189080605e-08 -0.5793591141700745 0.8150723576545715 3.025910189080605e-08 -0.5793591141700745 0.974387526512146 0.0 -0.2248755246400833 0.974387526512146 0.0 -0.2248755246400833 0.974387526512146 0.0 -0.2248755246400833 0.9740212559700012 -6.453019159380347e-05 -0.22645661234855652 0.9740212559700012 -6.453019159380347e-05 -0.22645661234855652 0.9740212559700012 -6.453019159380347e-05 -0.22645661234855652 0.9743875861167908 8.118359318132207e-08 -0.22487539052963257 0.9743875861167908 8.118359318132207e-08 -0.22487539052963257 0.9743875861167908 8.118359318132207e-08 -0.22487539052963257 0.9740211367607117 6.467965431511402e-05 -0.22645671665668488 0.9740211367607117 6.467965431511402e-05 -0.22645671665668488 0.9740211367607117 6.467965431511402e-05 -0.22645671665668488 0.9743875861167908 -6.415379903046414e-05 0.22487495839595795 0.9743875861167908 -6.415379903046414e-05 0.22487495839595795 0.9743875861167908 -6.415379903046414e-05 0.22487495839595795 0.9747786521911621 7.386154976529724e-08 0.22317376732826233 0.9747786521911621 7.386154976529724e-08 0.22317376732826233 0.9747786521911621 7.386154976529724e-08 0.22317376732826233 0.8150720000267029 6.474399327771607e-08 0.5793597102165222 0.8150720000267029 6.474399327771607e-08 0.5793597102165222 0.8150720000267029 6.474399327771607e-08 0.5793597102165222 0.6239413619041443 5.377766498781966e-08 0.7814711332321167 0.6239413619041443 5.377766498781966e-08 0.7814711332321167 0.6239413619041443 5.377766498781966e-08 0.7814711332321167 0.4613637328147888 4.536737918670042e-08 0.8872110843658447 0.4613637328147888 4.536737918670042e-08 0.8872110843658447 0.4613637328147888 4.536737918670042e-08 0.8872110843658447 0.3305489420890808 1.9803177764288193e-08 0.9437889456748962 0.3305489420890808 1.9803177764288193e-08 0.9437889456748962 0.3305489420890808 1.9803177764288193e-08 0.9437889456748962 0.22239749133586884 4.4827096701283153e-08 0.9749560356140137 0.22239749133586884 4.4827096701283153e-08 0.9749560356140137 0.22239749133586884 4.4827096701283153e-08 0.9749560356140137 0.12838593125343323 3.57199105849304e-08 0.9917243123054504 0.12838593125343323 3.57199105849304e-08 0.9917243123054504 0.12838593125343323 3.57199105849304e-08 0.9917243123054504 0.041996296495199203 2.86239689728518e-08 0.9991177320480347 0.041996296495199203 2.86239689728518e-08 0.9991177320480347 0.041996296495199203 2.86239689728518e-08 0.9991177320480347</float_array>
				<technique_common>
				<accessor source="#id-mesh-7-normals-array" count="486" stride="3">
					<param name="X" type="float"/>
					<param name="Y" type="float"/>
					<param name="Z" type="float"/>
				</accessor>
				</technique_common>
			</source>
			<source id="id-mesh-7-texcoord-0">
				<float_array id="id-mesh-7-texcoord-0-array" count="972"> 0.96875 1.0 1.0 1.0 1.0 0.6065238118171692 0.9375 1.0 0.96875 1.0 0.96875 0.6044737696647644 0.90625 1.0 0.9375 1.0 0.9375 0.5984024405479431 0.875 1.0 0.90625 1.0 0.90625 0.5885431170463562 0.84375 1.0 0.875 1.0 0.875 0.5752747654914856 0.8125 1.0 0.84375 1.0 0.84375 0.5591071844100952 0.78125 1.0 0.8125 1.0 0.8125 0.5406616926193237 0.75 1.0 0.78125 1.0 0.78125 0.5206472873687744 0.71875 0.5206472873687744 0.71875 1.0 0.75 1.0 0.71875 0.5206472873687744 0.6875 0.5406616926193237 0.71875 1.0 0.6875 0.5406616926193237 0.65625 0.5591071844100952 0.6875 1.0 0.65625 0.5591071844100952 0.625 0.5752747654914856 0.65625 1.0 0.625 0.5752747654914856 0.59375 0.5885431170463562 0.625 1.0 0.59375 0.5885431170463562 0.5625 0.5984024405479431 0.59375 1.0 0.5625 0.5984024405479431 0.53125 0.6044737696647644 0.5625 1.0 0.53125 0.6044737696647644 0.5 0.6065238118171692 0.53125 1.0 0.46875 1.0 0.5 1.0 0.5 0.6065238118171692 0.4375 1.0 0.46875 1.0 0.46875 0.6044737696647644 0.40625 1.0 0.4375 1.0 0.4375 0.5984024405479431 0.375 1.0 0.40625 1.0 0.40625 0.588543176651001 0.34375 1.0 0.375 1.0 0.375 0.5752747654914856 0.3125 1.0 0.34375 1.0 0.34375 0.5591071844100952 0.28125 1.0 0.3125 1.0 0.3125 0.5406616926193237 0.25 1.0 0.28125 1.0 0.28125 0.5206472873687744 0.21875 0.5206472873687744 0.21875 1.0 0.25 1.0 0.1875 0.5406616926193237 0.21875 1.0 0.21875 0.5206472873687744 0.15625 0.5591071844100952 0.1875 1.0 0.1875 0.5406616926193237 0.125 0.5752747654914856 0.15625 1.0 0.15625 0.5591071844100952 0.09375 0.588543176651001 0.125 1.0 0.125 0.5752747654914856 0.0625 0.5984024405479431 0.09375 1.0 0.09375 0.588543176651001 0.03125 0.6044737696647644 0.0625 1.0 0.0625 0.5984024405479431 0.0 0.6065238118171692 0.03125 1.0 0.03125 0.6044737696647644 0.96875 0.5 1.0 1.0 1.0 0.5 0.9375 0.5 0.96875 1.0 0.96875 0.5 0.9375 0.5 0.90625 1.0 0.9375 1.0 0.875 0.5 0.90625 1.0 0.90625 0.5 0.875 0.5 0.84375 1.0 0.875 1.0 0.8125 0.5 0.84375 1.0 0.84375 0.5 0.78125 0.5 0.8125 1.0 0.8125 0.5 0.75 0.7499999403953552 0.75 1.0 0.78125 1.0 0.75 0.7499999403953552 0.71875 0.7708142995834351 0.75 1.0 0.53125 0.854640781879425 0.5625 1.0 0.5625 0.8485694527626038 0.3125 0.7908287644386292 0.3125 1.0 0.34375 0.8092741966247559 0.28125 0.7708142995834351 0.28125 1.0 0.3125 0.7908287644386292 0.21875 1.0 0.25 1.0 0.25 0.7499999403953552 0.1875 0.5 0.21875 1.0 0.21875 0.5 0.1875 0.5 0.15625 1.0 0.1875 1.0 0.125 0.5 0.15625 1.0 0.15625 0.5 0.09375 0.5 0.125 1.0 0.125 0.5 0.0625 0.5 0.09375 1.0 0.09375 0.5 0.03125 0.5 0.0625 1.0 0.0625 0.5 0.03125 0.5 0.0 1.0 0.03125 1.0 0.96875 0.6044737696647644 0.96875 1.0 1.0 0.6065238118171692 0.9375 0.5984024405479431 0.9375 1.0 0.96875 0.6044737696647644 0.90625 0.5885431170463562 0.90625 1.0 0.9375 0.5984024405479431 0.875 0.5752747654914856 0.875 1.0 0.90625 0.5885431170463562 0.84375 0.5591071844100952 0.84375 1.0 0.875 0.5752747654914856 0.8125 0.5406616926193237 0.8125 1.0 0.84375 0.5591071844100952 0.78125 0.5206472873687744 0.78125 1.0 0.8125 0.5406616926193237 0.75 0.5 0.75 1.0 0.78125 0.5206472873687744 0.75 1.0 0.75 0.5 0.71875 0.5206472873687744 0.6875 0.5406616926193237 0.6875 1.0 0.71875 1.0 0.65625 0.5591071844100952 0.65625 1.0 0.6875 1.0 0.625 0.5752747654914856 0.625 1.0 0.65625 1.0 0.59375 0.5885431170463562 0.59375 1.0 0.625 1.0 0.5625 0.5984024405479431 0.5625 1.0 0.59375 1.0 0.53125 0.6044737696647644 0.53125 1.0 0.5625 1.0 0.5 0.6065238118171692 0.5 1.0 0.53125 1.0 0.46875 0.6044737696647644 0.46875 1.0 0.5 0.6065238118171692 0.4375 0.5984024405479431 0.4375 1.0 0.46875 0.6044737696647644 0.40625 0.588543176651001 0.40625 1.0 0.4375 0.5984024405479431 0.375 0.5752747654914856 0.375 1.0 0.40625 0.588543176651001 0.34375 0.5591071844100952 0.34375 1.0 0.375 0.5752747654914856 0.3125 0.5406616926193237 0.3125 1.0 0.34375 0.5591071844100952 0.28125 0.5206472873687744 0.28125 1.0 0.3125 0.5406616926193237 0.25 0.5 0.25 1.0 0.28125 0.5206472873687744 0.25 1.0 0.25 0.5 0.21875 0.5206472873687744 0.1875 0.5406616926193237 0.1875 1.0 0.21875 1.0 0.15625 0.5591071844100952 0.15625 1.0 0.1875 1.0 0.125 0.5752747654914856 0.125 1.0 0.15625 1.0 0.09375 0.588543176651001 0.09375 1.0 0.125 1.0 0.0625 0.5984024405479431 0.0625 1.0 0.09375 1.0 0.03125 0.6044737696647644 0.03125 1.0 0.0625 1.0 0.0 0.6065238118171692 0.0 1.0 0.03125 1.0 0.96875 0.5 0.96875 1.0 1.0 1.0 0.9375 0.5 0.9375 1.0 0.96875 1.0 0.9375 0.5 0.90625 0.5 0.90625 1.0 0.875 0.5 0.875 1.0 0.90625 1.0 0.875 0.5 0.84375 0.5 0.84375 1.0 0.8125 0.5 0.8125 1.0 0.84375 1.0 0.78125 0.5 0.78125 1.0 0.8125 1.0 0.78125 1.0 0.78125 0.5 0.75 0.7499999403953552 0.78125 0.5 0.75 0.5 0.75 0.7499999403953552 0.75 0.7499999403953552 0.75 0.5 0.71875 0.7291855812072754 0.75 0.5 0.71875 0.5 0.71875 0.7291855812072754 0.71875 0.7708142995834351 0.71875 1.0 0.75 1.0 0.71875 0.7291855812072754 0.71875 0.5 0.6875 0.7091711163520813 0.71875 0.5 0.6875 0.5 0.6875 0.7091711163520813 0.6875 1.0 0.71875 1.0 0.6875 0.7908287644386292 0.71875 1.0 0.71875 0.7708142995834351 0.6875 0.7908287644386292 0.6875 0.7091711163520813 0.6875 0.5 0.65625 0.6907256841659546 0.6875 0.5 0.65625 0.5 0.65625 0.6907256841659546 0.65625 0.8092741966247559 0.65625 1.0 0.6875 1.0 0.6875 0.7908287644386292 0.65625 0.8092741966247559 0.6875 1.0 0.65625 0.6907256841659546 0.65625 0.5 0.625 0.6745580434799194 0.65625 0.5 0.625 0.5 0.625 0.6745580434799194 0.625 0.8254417777061462 0.625 1.0 0.65625 1.0 0.65625 0.8092741966247559 0.625 0.8254417777061462 0.65625 1.0 0.625 0.6745580434799194 0.625 0.5 0.59375 0.6612896919250488 0.625 0.5 0.59375 0.5 0.59375 0.6612896919250488 0.59375 0.8387101292610168 0.59375 1.0 0.625 1.0 0.625 0.8254417777061462 0.59375 0.8387101292610168 0.625 1.0 0.59375 0.6612896919250488 0.59375 0.5 0.5625 0.6514304280281067 0.59375 0.5 0.5625 0.5 0.5625 0.6514304280281067 0.5625 0.8485694527626038 0.5625 1.0 0.59375 1.0 0.59375 1.0 0.59375 0.8387101292610168 0.5625 0.8485694527626038 0.5625 0.6514304280281067 0.5625 0.5 0.53125 0.6453590393066406 0.5625 0.5 0.53125 0.5 0.53125 0.6453590393066406 0.53125 0.854640781879425 0.53125 1.0 0.5625 1.0 0.53125 0.6453590393066406 0.53125 0.5 0.5 0.6433091163635254 0.53125 0.5 0.5 0.5 0.5 0.6433091163635254 0.5 0.8566908240318298 0.5 1.0 0.53125 1.0 0.53125 1.0 0.53125 0.854640781879425 0.5 0.8566908240318298 0.5 0.6433091163635254 0.5 0.5 0.46875 0.5 0.46875 0.854640781879425 0.46875 1.0 0.5 0.8566908240318298 0.5 0.8566908240318298 0.46875 1.0 0.5 1.0 0.5 0.6433091163635254 0.46875 0.5 0.46875 0.6453590393066406 0.46875 0.6453590393066406 0.46875 0.5 0.4375 0.5 0.46875 0.6453590393066406 0.4375 0.5 0.4375 0.6514304280281067 0.4375 1.0 0.46875 1.0 0.46875 0.854640781879425 0.4375 0.8485694527626038 0.4375 1.0 0.46875 0.854640781879425 0.4375 0.6514304280281067 0.4375 0.5 0.40625 0.5 0.40625 0.5 0.40625 0.6612896919250488 0.4375 0.6514304280281067 0.40625 0.8387101292610168 0.40625 1.0 0.4375 0.8485694527626038 0.40625 1.0 0.4375 1.0 0.4375 0.8485694527626038 0.40625 0.6612896919250488 0.40625 0.5 0.375 0.5 0.375 0.5 0.375 0.6745580434799194 0.40625 0.6612896919250488 0.375 0.8254417777061462 0.375 1.0 0.40625 0.8387101292610168 0.375 1.0 0.40625 1.0 0.40625 0.8387101292610168 0.375 0.6745580434799194 0.375 0.5 0.34375 0.5 0.375 0.6745580434799194 0.34375 0.5 0.34375 0.6907256841659546 0.34375 1.0 0.375 1.0 0.375 0.8254417777061462 0.34375 0.8092741966247559 0.34375 1.0 0.375 0.8254417777061462 0.34375 0.6907256841659546 0.34375 0.5 0.3125 0.5 0.34375 0.6907256841659546 0.3125 0.5 0.3125 0.7091711163520813 0.3125 1.0 0.34375 1.0 0.34375 0.8092741966247559 0.3125 0.7091711163520813 0.3125 0.5 0.28125 0.5 0.3125 0.7091711163520813 0.28125 0.5 0.28125 0.7291855812072754 0.28125 1.0 0.3125 1.0 0.3125 0.7908287644386292 0.28125 0.7291855812072754 0.28125 0.5 0.25 0.5 0.25 0.7499999403953552 0.25 1.0 0.28125 0.7708142995834351 0.25 1.0 0.28125 1.0 0.28125 0.7708142995834351 0.28125 0.7291855812072754 0.25 0.5 0.25 0.7499999403953552 0.25 0.7499999403953552 0.25 0.5 0.21875 0.5 0.21875 0.5 0.21875 1.0 0.25 0.7499999403953552 0.1875 0.5 0.1875 1.0 0.21875 1.0 0.1875 0.5 0.15625 0.5 0.15625 1.0 0.125 0.5 0.125 1.0 0.15625 1.0 0.09375 0.5 0.09375 1.0 0.125 1.0 0.0625 0.5 0.0625 1.0 0.09375 1.0 0.03125 0.5 0.03125 1.0 0.0625 1.0 0.03125 0.5 0.0 0.5 0.0 1.0</float_array>
				<technique_common>
				<accessor source="#id-mesh-7-texcoord-0-array" count="486" stride="2">
					<param name="S" type="float"/>
					<param name="T" type="float"/>
				</accessor>
				</technique_common>
			</source>
			<vertices id="id-mesh-7-vertices">
				<input semantic="POSITION" source="#id-mesh-7-positions"/>
			</vertices>
			<polygons count="162" material="id-trimat-8">
				<input semantic="VERTEX" source="#id-mesh-7-vertices" offset="0"/>
				<input semantic="NORMAL" source="#id-mesh-7-normals" offset="0"/>
				<input semantic="TEXCOORD" source="#id-mesh-7-texcoord-0" offset="0" set="0"/>
				<p> 0 1 2 </p>
				<p> 3 4 5 </p>
				<p> 6 7 8 </p>
				<p> 9 10 11 </p>
				<p> 12 13 14 </p>
				<p> 15 16 17 </p>
				<p> 18 19 20 </p>
				<p> 21 22 23 </p>
				<p> 24 25 26 </p>
				<p> 27 28 29 </p>
				<p> 30 31 32 </p>
				<p> 33 34 35 </p>
				<p> 36 37 38 </p>
				<p> 39 40 41 </p>
				<p> 42 43 44 </p>
				<p> 45 46 47 </p>
				<p> 48 49 50 </p>
				<p> 51 52 53 </p>
				<p> 54 55 56 </p>
				<p> 57 58 59 </p>
				<p> 60 61 62 </p>
				<p> 63 64 65 </p>
				<p> 66 67 68 </p>
				<p> 69 70 71 </p>
				<p> 72 73 74 </p>
				<p> 75 76 77 </p>
				<p> 78 79 80 </p>
				<p> 81 82 83 </p>
				<p> 84 85 86 </p>
				<p> 87 88 89 </p>
				<p> 90 91 92 </p>
				<p> 93 94 95 </p>
				<p> 96 97 98 </p>
				<p> 99 100 101 </p>
				<p> 102 103 104 </p>
				<p> 105 106 107 </p>
				<p> 108 109 110 </p>
				<p> 111 112 113 </p>
				<p> 114 115 116 </p>
				<p> 117 118 119 </p>
				<p> 120 121 122 </p>
				<p> 123 124 125 </p>
				<p> 126 127 128 </p>
				<p> 129 130 131 </p>
				<p> 132 133 134 </p>
				<p> 135 136 137 </p>
				<p> 138 139 140 </p>
				<p> 141 142 143 </p>
				<p> 144 145 146 </p>
				<p> 147 148 149 </p>
				<p> 150 151 152 </p>
				<p> 153 154 155 </p>
				<p> 156 157 158 </p>
				<p> 159 160 161 </p>
				<p> 162 163 164 </p>
				<p> 165 166 167 </p>
				<p> 168 169 170 </p>
				<p> 171 172 173 </p>
				<p> 174 175 176 </p>
				<p> 177 178 179 </p>
				<p> 180 181 182 </p>
				<p> 183 184 185 </p>
				<p> 186 187 188 </p>
				<p> 189 190 191 </p>
				<p> 192 193 194 </p>
				<p> 195 196 197 </p>
				<p> 198 199 200 </p>
				<p> 201 202 203 </p>
				<p> 204 205 206 </p>
				<p> 207 208 209 </p>
				<p> 210 211 212 </p>
				<p> 213 214 215 </p>
				<p> 216 217 218 </p>
				<p> 219 220 221 </p>
				<p> 222 223 224 </p>
				<p> 225 226 227 </p>
				<p> 228 229 230 </p>
				<p> 231 232 233 </p>
				<p> 234 235 236 </p>
				<p> 237 238 239 </p>
				<p> 240 241 242 </p>
				<p> 243 244 245 </p>
				<p> 246 247 248 </p>
				<p> 249 250 251 </p>
				<p> 252 253 254 </p>
				<p> 255 256 257 </p>
				<p> 258 259 260 </p>
				<p> 261 262 263 </p>
				<p> 264 265 266 </p>
				<p> 267 268 269 </p>
				<p> 270 271 272 </p>
				<p> 273 274 275 </p>
				<p> 276 277 278 </p>
				<p> 279 280 281 </p>
				<p> 282 283 284 </p>
				<p> 285 286 287 </p>
				<p> 288 289 290 </p>
				<p> 291 292 293 </p>
				<p> 294 295 296 </p>
				<p> 297 298 299 </p>
				<p> 300 301 302 </p>
				<p> 303 304 305 </p>
				<p> 306 307 308 </p>
				<p> 309 310 311 </p>
				<p> 312 313 314 </p>
				<p> 315 316 317 </p>
				<p> 318 319 320 </p>
				<p> 321 322 323 </p>
				<p> 324 325 326 </p>
				<p> 327 328 329 </p>
				<p> 330 331 332 </p>
				<p> 333 334 335 </p>
				<p> 336 337 338 </p>
				<p> 339 340 341 </p>
				<p> 342 343 344 </p>
				<p> 345 346 347 </p>
				<p> 348 349 350 </p>
				<p> 351 352 353 </p>
				<p> 354 355 356 </p>
				<p> 357 358 359 </p>
				<p> 360 361 362 </p>
				<p> 363 364 365 </p>
				<p> 366 367 368 </p>
				<p> 369 370 371 </p>
				<p> 372 373 374 </p>
				<p> 375 376 377 </p>
				<p> 378 379 380 </p>
				<p> 381 382 383 </p>
				<p> 384 385 386 </p>
				<p> 387 388 389 </p>
				<p> 390 391 392 </p>
				<p> 393 394 395 </p>
				<p> 396 397 398 </p>
				<p> 399 400 401 </p>
				<p> 402 403 404 </p>
				<p> 405 406 407 </p>
				<p> 408 409 410 </p>
				<p> 411 412 413 </p>
				<p> 414 415 416 </p>
				<p> 417 418 419 </p>
				<p> 420 421 422 </p>
				<p> 423 424 425 </p>
				<p> 426 427 428 </p>
				<p> 429 430 431 </p>
				<p> 432 433 434 </p>
				<p> 435 436 437 </p>
				<p> 438 439 440 </p>
				<p> 441 442 443 </p>
				<p> 444 445 446 </p>
				<p> 447 448 449 </p>
				<p> 450 451 452 </p>
				<p> 453 454 455 </p>
				<p> 456 457 458 </p>
				<p> 459 460 461 </p>
				<p> 462 463 464 </p>
				<p> 465 466 467 </p>
				<p> 468 469 470 </p>
				<p> 471 472 473 </p>
				<p> 474 475 476 </p>
				<p> 477 478 479 </p>
				<p> 480 481 482 </p>
				<p> 483 484 485 </p>
			</polygons>
		</mesh>
	</geometry>
</library_geometries>
<library_visual_scenes>
	<visual_scene id="id-scene-1" name="scene">
		<node id="Cylinder" name="Cylinder" type="NODE">
			<matrix sid="transform"> 7.549790126404332e-08 0.0 2.3432185649871826 0.0 0.0 1.0 0.0 0.0 -1.0 0.0 1.769080881786067e-07 0.0 0.0 0.0 0.0 1.0  </matrix>
			<instance_geometry url="#id-mesh-7">
				<bind_material>
					<technique_common>
						<instance_material symbol="id-trimat-8" target="#id-material-6"/>
					</technique_common>
				</bind_material>
			</instance_geometry>
		</node>
	</visual_scene>
</library_visual_scenes>
<scene>
	<instance_visual_scene url="#id-scene-1" />
</scene>
</COLLADA>
