{
	"asset":{
		"generator":"Khronos glTF Blender I/O v5.0.21",
		"version":"2.0"
	},
	"scene":0,
	"scenes":[
		{
			"name":"Scene",
			"nodes":[
				12
			]
		}
	],
	"nodes":[
		{
			"mesh":0,
			"name":"Key_1_key_1_0"
		},
		{
			"children":[
				0
			],
			"name":"Key_1",
			"rotation":[
				0.6342076659202576,
				0.03815244138240814,
				0.03135962411761284,
				0.7715838551521301
			],
			"translation":[
				-0.0019135338952764869,
				0.08341746777296066,
				0.013268306851387024
			]
		},
		{
			"mesh":1,
			"name":"key_2_key_2_0"
		},
		{
			"children":[
				2
			],
			"name":"key_2",
			"rotation":[
				0.5811304450035095,
				0,
				0,
				0.8138104677200317
			],
			"translation":[
				0,
				0.09007725864648819,
				0.026474181562662125
			]
		},
		{
			"mesh":2,
			"name":"Key_3_key_3_0"
		},
		{
			"children":[
				4
			],
			"name":"Key_3",
			"rotation":[
				0.7399166226387024,
				-0.05720323696732521,
				-0.06343255937099457,
				0.6672537326812744
			],
			"translation":[
				0.0016525974497199059,
				0.08609676361083984,
				-0.0032550087198615074
			]
		},
		{
			"mesh":3,
			"name":"name_name_0"
		},
		{
			"children":[
				6
			],
			"name":"name",
			"rotation":[
				0.7476223707199097,
				0,
				0,
				0.664124071598053
			],
			"translation":[
				0,
				0.02680273912847042,
				-0.012264332734048367
			]
		},
		{
			"mesh":4,
			"name":"ring_ring_0"
		},
		{
			"children":[
				8
			],
			"name":"ring",
			"rotation":[
				0.5170923471450806,
				0.5170918107032776,
				-0.4823029339313507,
				0.48230233788490295
			],
			"translation":[
				-0.005203880835324526,
				0.13024777173995972,
				0.011061071418225765
			]
		},
		{
			"children":[
				1,
				3,
				5,
				7,
				9
			],
			"name":"RootNode"
		},
		{
			"children":[
				10
			],
			"name":"c4c518ca8993415facec0e6eb479968c.fbx",
			"rotation":[
				0.70710688829422,
				0,
				0,
				0.7071066498756409
			]
		},
		{
			"children":[
				11
			],
			"name":"Sketchfab_model",
			"rotation":[
				-0.70710688829422,
				0,
				0,
				0.7071066498756409
			]
		}
	],
	"materials":[
		{
			"doubleSided":true,
			"name":"key_1",
			"normalTexture":{
				"index":0
			},
			"pbrMetallicRoughness":{
				"baseColorTexture":{
					"index":1
				},
				"metallicRoughnessTexture":{
					"index":2
				}
			}
		},
		{
			"doubleSided":true,
			"name":"key_2",
			"normalTexture":{
				"index":3
			},
			"pbrMetallicRoughness":{
				"baseColorTexture":{
					"index":4
				},
				"metallicRoughnessTexture":{
					"index":5
				}
			}
		},
		{
			"doubleSided":true,
			"name":"key_3",
			"normalTexture":{
				"index":6
			},
			"pbrMetallicRoughness":{
				"baseColorTexture":{
					"index":7
				},
				"metallicRoughnessTexture":{
					"index":8
				}
			}
		},
		{
			"doubleSided":true,
			"name":"name",
			"normalTexture":{
				"index":9
			},
			"pbrMetallicRoughness":{
				"baseColorFactor":[
					0.30000001192092896,
					0.30000001192092896,
					0.30000001192092896,
					1
				],
				"baseColorTexture":{
					"index":10
				},
				"metallicRoughnessTexture":{
					"index":11
				}
			}
		},
		{
			"doubleSided":true,
			"name":"ring",
			"normalTexture":{
				"index":12
			},
			"pbrMetallicRoughness":{
				"baseColorTexture":{
					"index":13
				},
				"metallicRoughnessTexture":{
					"index":14
				}
			}
		}
	],
	"meshes":[
		{
			"name":"Key_1_key_1_0",
			"primitives":[
				{
					"attributes":{
						"POSITION":0,
						"NORMAL":1,
						"TEXCOORD_0":2,
						"TEXCOORD_1":3,
						"TEXCOORD_2":4
					},
					"indices":5,
					"material":0
				}
			]
		},
		{
			"name":"key_2_key_2_0",
			"primitives":[
				{
					"attributes":{
						"POSITION":6,
						"NORMAL":7,
						"TEXCOORD_0":8,
						"TEXCOORD_1":9,
						"TEXCOORD_2":10
					},
					"indices":11,
					"material":1
				}
			]
		},
		{
			"name":"Key_3_key_3_0",
			"primitives":[
				{
					"attributes":{
						"POSITION":12,
						"NORMAL":13,
						"TEXCOORD_0":14,
						"TEXCOORD_1":15,
						"TEXCOORD_2":16
					},
					"indices":17,
					"material":2
				}
			]
		},
		{
			"name":"name_name_0",
			"primitives":[
				{
					"attributes":{
						"POSITION":18,
						"NORMAL":19,
						"TEXCOORD_0":20,
						"TEXCOORD_1":21,
						"TEXCOORD_2":22
					},
					"indices":23,
					"material":3
				}
			]
		},
		{
			"name":"ring_ring_0",
			"primitives":[
				{
					"attributes":{
						"POSITION":24,
						"NORMAL":25,
						"TEXCOORD_0":26,
						"TEXCOORD_1":27,
						"TEXCOORD_2":28
					},
					"indices":29,
					"material":4
				}
			]
		}
	],
	"textures":[
		{
			"sampler":0,
			"source":0
		},
		{
			"sampler":0,
			"source":1
		},
		{
			"sampler":0,
			"source":2
		},
		{
			"sampler":0,
			"source":3
		},
		{
			"sampler":0,
			"source":4
		},
		{
			"sampler":0,
			"source":5
		},
		{
			"sampler":0,
			"source":6
		},
		{
			"sampler":0,
			"source":7
		},
		{
			"sampler":0,
			"source":8
		},
		{
			"sampler":0,
			"source":9
		},
		{
			"sampler":0,
			"source":10
		},
		{
			"sampler":0,
			"source":11
		},
		{
			"sampler":0,
			"source":12
		},
		{
			"sampler":0,
			"source":13
		},
		{
			"sampler":0,
			"source":14
		}
	],
	"images":[
		{
			"mimeType":"image/png",
			"name":"key_1_normal",
			"uri":"key_1_normal.png"
		},
		{
			"mimeType":"image/png",
			"name":"key_1_baseColor",
			"uri":"key_1_baseColor.png"
		},
		{
			"mimeType":"image/png",
			"name":"key_1_metallicRoughness",
			"uri":"key_1_metallicRoughness.png"
		},
		{
			"mimeType":"image/png",
			"name":"key_2_normal",
			"uri":"key_2_normal.png"
		},
		{
			"mimeType":"image/png",
			"name":"key_2_baseColor",
			"uri":"key_2_baseColor.png"
		},
		{
			"mimeType":"image/png",
			"name":"key_2_metallicRoughness",
			"uri":"key_2_metallicRoughness.png"
		},
		{
			"mimeType":"image/png",
			"name":"key_3_normal",
			"uri":"key_3_normal.png"
		},
		{
			"mimeType":"image/png",
			"name":"key_3_baseColor",
			"uri":"key_3_baseColor.png"
		},
		{
			"mimeType":"image/png",
			"name":"key_3_metallicRoughness",
			"uri":"key_3_metallicRoughness.png"
		},
		{
			"mimeType":"image/png",
			"name":"name_normal",
			"uri":"name_normal.png"
		},
		{
			"mimeType":"image/png",
			"name":"name_baseColor",
			"uri":"name_baseColor.png"
		},
		{
			"mimeType":"image/png",
			"name":"name_metallicRoughness",
			"uri":"name_metallicRoughness.png"
		},
		{
			"mimeType":"image/png",
			"name":"ring_normal",
			"uri":"ring_normal.png"
		},
		{
			"mimeType":"image/png",
			"name":"ring_baseColor",
			"uri":"ring_baseColor.png"
		},
		{
			"mimeType":"image/png",
			"name":"ring_metallicRoughness",
			"uri":"ring_metallicRoughness.png"
		}
	],
	"accessors":[
		{
			"bufferView":0,
			"componentType":5126,
			"count":4392,
			"max":[
				0.0496797151863575,
				0.011270261369645596,
				0.25858792662620544
			],
			"min":[
				-0.0496797151863575,
				0.00013364922779146582,
				-0.012449542060494423
			],
			"type":"VEC3"
		},
		{
			"bufferView":1,
			"componentType":5126,
			"count":4392,
			"type":"VEC3"
		},
		{
			"bufferView":2,
			"componentType":5126,
			"count":4392,
			"type":"VEC2"
		},
		{
			"bufferView":3,
			"componentType":5126,
			"count":4392,
			"type":"VEC2"
		},
		{
			"bufferView":4,
			"componentType":5126,
			"count":4392,
			"type":"VEC2"
		},
		{
			"bufferView":5,
			"componentType":5123,
			"count":16056,
			"type":"SCALAR"
		},
		{
			"bufferView":6,
			"componentType":5126,
			"count":4033,
			"max":[
				0.03836677223443985,
				0.014668353833258152,
				0.22856128215789795
			],
			"min":[
				-0.03836677223443985,
				0,
				-0.008770721964538097
			],
			"type":"VEC3"
		},
		{
			"bufferView":7,
			"componentType":5126,
			"count":4033,
			"type":"VEC3"
		},
		{
			"bufferView":8,
			"componentType":5126,
			"count":4033,
			"type":"VEC2"
		},
		{
			"bufferView":9,
			"componentType":5126,
			"count":4033,
			"type":"VEC2"
		},
		{
			"bufferView":10,
			"componentType":5126,
			"count":4033,
			"type":"VEC2"
		},
		{
			"bufferView":11,
			"componentType":5123,
			"count":8862,
			"type":"SCALAR"
		},
		{
			"bufferView":12,
			"componentType":5126,
			"count":4592,
			"max":[
				0.03631726652383804,
				0.01240423321723938,
				0.24487166106700897
			],
			"min":[
				-0.03631726652383804,
				-1.1708444214164615e-09,
				-0.015276268124580383
			],
			"type":"VEC3"
		},
		{
			"bufferView":13,
			"componentType":5126,
			"count":4592,
			"type":"VEC3"
		},
		{
			"bufferView":14,
			"componentType":5126,
			"count":4592,
			"type":"VEC2"
		},
		{
			"bufferView":15,
			"componentType":5126,
			"count":4592,
			"type":"VEC2"
		},
		{
			"bufferView":16,
			"componentType":5126,
			"count":4592,
			"type":"VEC2"
		},
		{
			"bufferView":17,
			"componentType":5123,
			"count":9672,
			"type":"SCALAR"
		},
		{
			"bufferView":18,
			"componentType":5126,
			"count":1292,
			"max":[
				0.04123436659574509,
				1.0218053830612916e-05,
				0.19754715263843536
			],
			"min":[
				-0.04123436659574509,
				-0.01125524751842022,
				-0.0877990797162056
			],
			"type":"VEC3"
		},
		{
			"bufferView":19,
			"componentType":5126,
			"count":1292,
			"type":"VEC3"
		},
		{
			"bufferView":20,
			"componentType":5126,
			"count":1292,
			"type":"VEC2"
		},
		{
			"bufferView":21,
			"componentType":5126,
			"count":1292,
			"type":"VEC2"
		},
		{
			"bufferView":22,
			"componentType":5126,
			"count":1292,
			"type":"VEC2"
		},
		{
			"bufferView":23,
			"componentType":5123,
			"count":2640,
			"type":"SCALAR"
		},
		{
			"bufferView":24,
			"componentType":5126,
			"count":2767,
			"max":[
				0.05224065110087395,
				0.011474329978227615,
				0.052168168127536774
			],
			"min":[
				-0.05194144323468208,
				-0.0020914804190397263,
				-0.05217282474040985
			],
			"type":"VEC3"
		},
		{
			"bufferView":25,
			"componentType":5126,
			"count":2767,
			"type":"VEC3"
		},
		{
			"bufferView":26,
			"componentType":5126,
			"count":2767,
			"type":"VEC2"
		},
		{
			"bufferView":27,
			"componentType":5126,
			"count":2767,
			"type":"VEC2"
		},
		{
			"bufferView":28,
			"componentType":5126,
			"count":2767,
			"type":"VEC2"
		},
		{
			"bufferView":29,
			"componentType":5123,
			"count":6696,
			"type":"SCALAR"
		}
	],
	"bufferViews":[
		{
			"buffer":0,
			"byteLength":52704,
			"byteOffset":0,
			"target":34962
		},
		{
			"buffer":0,
			"byteLength":52704,
			"byteOffset":52704,
			"target":34962
		},
		{
			"buffer":0,
			"byteLength":35136,
			"byteOffset":105408,
			"target":34962
		},
		{
			"buffer":0,
			"byteLength":35136,
			"byteOffset":140544,
			"target":34962
		},
		{
			"buffer":0,
			"byteLength":35136,
			"byteOffset":175680,
			"target":34962
		},
		{
			"buffer":0,
			"byteLength":32112,
			"byteOffset":210816,
			"target":34963
		},
		{
			"buffer":0,
			"byteLength":48396,
			"byteOffset":242928,
			"target":34962
		},
		{
			"buffer":0,
			"byteLength":48396,
			"byteOffset":291324,
			"target":34962
		},
		{
			"buffer":0,
			"byteLength":32264,
			"byteOffset":339720,
			"target":34962
		},
		{
			"buffer":0,
			"byteLength":32264,
			"byteOffset":371984,
			"target":34962
		},
		{
			"buffer":0,
			"byteLength":32264,
			"byteOffset":404248,
			"target":34962
		},
		{
			"buffer":0,
			"byteLength":17724,
			"byteOffset":436512,
			"target":34963
		},
		{
			"buffer":0,
			"byteLength":55104,
			"byteOffset":454236,
			"target":34962
		},
		{
			"buffer":0,
			"byteLength":55104,
			"byteOffset":509340,
			"target":34962
		},
		{
			"buffer":0,
			"byteLength":36736,
			"byteOffset":564444,
			"target":34962
		},
		{
			"buffer":0,
			"byteLength":36736,
			"byteOffset":601180,
			"target":34962
		},
		{
			"buffer":0,
			"byteLength":36736,
			"byteOffset":637916,
			"target":34962
		},
		{
			"buffer":0,
			"byteLength":19344,
			"byteOffset":674652,
			"target":34963
		},
		{
			"buffer":0,
			"byteLength":15504,
			"byteOffset":693996,
			"target":34962
		},
		{
			"buffer":0,
			"byteLength":15504,
			"byteOffset":709500,
			"target":34962
		},
		{
			"buffer":0,
			"byteLength":10336,
			"byteOffset":725004,
			"target":34962
		},
		{
			"buffer":0,
			"byteLength":10336,
			"byteOffset":735340,
			"target":34962
		},
		{
			"buffer":0,
			"byteLength":10336,
			"byteOffset":745676,
			"target":34962
		},
		{
			"buffer":0,
			"byteLength":5280,
			"byteOffset":756012,
			"target":34963
		},
		{
			"buffer":0,
			"byteLength":33204,
			"byteOffset":761292,
			"target":34962
		},
		{
			"buffer":0,
			"byteLength":33204,
			"byteOffset":794496,
			"target":34962
		},
		{
			"buffer":0,
			"byteLength":22136,
			"byteOffset":827700,
			"target":34962
		},
		{
			"buffer":0,
			"byteLength":22136,
			"byteOffset":849836,
			"target":34962
		},
		{
			"buffer":0,
			"byteLength":22136,
			"byteOffset":871972,
			"target":34962
		},
		{
			"buffer":0,
			"byteLength":13392,
			"byteOffset":894108,
			"target":34963
		}
	],
	"samplers":[
		{
			"magFilter":9729,
			"minFilter":9987
		}
	],
	"buffers":[
		{
			"byteLength":907500,
			"uri":"scene.bin"
		}
	]
}
